<svg width="439" height="397" viewBox="0 0 439 397" fill="none" xmlns="http://www.w3.org/2000/svg">
<rect y="0.137146" width="439" height="396" rx="5.15228" fill="white"/>
<path d="M26.0081 25.9535C25.9554 25.4222 25.7292 25.0094 25.3296 24.7152C24.93 24.421 24.3877 24.2739 23.7027 24.2739C23.2372 24.2739 22.8442 24.3398 22.5237 24.4715C22.2031 24.5988 21.9572 24.7767 21.786 25.005C21.6191 25.2334 21.5357 25.4924 21.5357 25.7822C21.5269 26.0238 21.5774 26.2345 21.6872 26.4146C21.8013 26.5946 21.9572 26.7505 22.1548 26.8822C22.3524 27.0096 22.5808 27.1215 22.8398 27.2182C23.0989 27.3104 23.3756 27.3894 23.6698 27.4553L24.8817 27.7451C25.4701 27.8768 26.0102 28.0525 26.5021 28.272C26.9939 28.4916 27.4198 28.7616 27.7799 29.0822C28.14 29.4028 28.4188 29.7804 28.6164 30.2151C28.8184 30.6498 28.9216 31.1482 28.926 31.7103C28.9216 32.5358 28.7108 33.2516 28.2936 33.8576C27.8809 34.4592 27.2837 34.9268 26.5021 35.2605C25.7248 35.5899 24.7873 35.7546 23.6895 35.7546C22.6005 35.7546 21.652 35.5877 20.8441 35.254C20.0405 34.9202 19.4125 34.4262 18.9603 33.7719C18.5124 33.1133 18.2774 32.2987 18.2555 31.3283H21.0153C21.0461 31.7806 21.1756 32.1582 21.4039 32.4612C21.6367 32.7598 21.9462 32.9859 22.3327 33.1396C22.7235 33.2889 23.1648 33.3636 23.6566 33.3636C24.1396 33.3636 24.559 33.2933 24.9147 33.1528C25.2747 33.0123 25.5536 32.8169 25.7512 32.5666C25.9488 32.3163 26.0476 32.0287 26.0476 31.7037C26.0476 31.4007 25.9576 31.146 25.7775 30.9397C25.6019 30.7333 25.3428 30.5576 25.0003 30.4127C24.6622 30.2678 24.2472 30.1361 23.7554 30.0175L22.2866 29.6487C21.1492 29.372 20.2513 28.9395 19.5926 28.3511C18.9339 27.7627 18.6068 26.9701 18.6112 25.9733C18.6068 25.1565 18.8241 24.4429 19.2632 23.8326C19.7068 23.2222 20.3149 22.7458 21.0878 22.4033C21.8606 22.0607 22.7388 21.8895 23.7225 21.8895C24.7236 21.8895 25.5975 22.0607 26.344 22.4033C27.0949 22.7458 27.6789 23.2222 28.096 23.8326C28.5132 24.4429 28.7284 25.1499 28.7415 25.9535H26.0081ZM36.173 25.4463V27.5541H30.0803V25.4463H36.173ZM31.4635 23.0224H34.2695V32.4546C34.2695 32.7137 34.309 32.9157 34.388 33.0606C34.4671 33.2011 34.5768 33.2999 34.7174 33.357C34.8623 33.4141 35.0291 33.4426 35.2179 33.4426C35.3497 33.4426 35.4814 33.4316 35.6131 33.4097C35.7449 33.3833 35.8459 33.3636 35.9161 33.3504L36.3574 35.4384C36.2169 35.4823 36.0193 35.5328 35.7646 35.5899C35.51 35.6514 35.2004 35.6887 34.8359 35.7019C34.1597 35.7282 33.5669 35.6382 33.0575 35.4318C32.5525 35.2254 32.1595 34.9049 31.8785 34.4701C31.5974 34.0354 31.4591 33.4865 31.4635 32.8235V23.0224ZM40.8858 35.7546C40.2403 35.7546 39.6651 35.6426 39.1601 35.4186C38.6551 35.1903 38.2555 34.8544 37.9613 34.4109C37.6715 33.963 37.5266 33.4053 37.5266 32.7378C37.5266 32.1758 37.6298 31.7037 37.8362 31.3217C38.0426 30.9397 38.3236 30.6323 38.6793 30.3995C39.035 30.1668 39.4389 29.9912 39.8912 29.8726C40.3479 29.754 40.8265 29.6706 41.3271 29.6223C41.9155 29.5608 42.3898 29.5037 42.7499 29.4511C43.1099 29.394 43.3712 29.3105 43.5337 29.2008C43.6962 29.091 43.7774 28.9285 43.7774 28.7133V28.6738C43.7774 28.2567 43.6457 27.9339 43.3822 27.7056C43.1231 27.4772 42.7543 27.3631 42.2756 27.3631C41.7706 27.3631 41.3688 27.475 41.0703 27.699C40.7717 27.9185 40.5741 28.1952 40.4774 28.5289L37.8823 28.3181C38.014 27.7034 38.2731 27.172 38.6595 26.7241C39.0459 26.2719 39.5443 25.925 40.1547 25.6834C40.7695 25.4375 41.4808 25.3146 42.2888 25.3146C42.8509 25.3146 43.3888 25.3805 43.9025 25.5122C44.4207 25.6439 44.8796 25.8481 45.2792 26.1248C45.6832 26.4014 46.0015 26.7571 46.2342 27.1918C46.467 27.6221 46.5833 28.1381 46.5833 28.7397V35.5635H43.9223V34.1606H43.8433C43.6808 34.4767 43.4634 34.7556 43.1912 34.9971C42.9189 35.2342 42.5918 35.4208 42.2098 35.557C41.8277 35.6887 41.3864 35.7546 40.8858 35.7546ZM41.6894 33.8181C42.1022 33.8181 42.4666 33.7368 42.7828 33.5743C43.099 33.4075 43.3471 33.1835 43.5271 32.9025C43.7071 32.6215 43.7972 32.3031 43.7972 31.9474V30.8738C43.7093 30.9309 43.5886 30.9836 43.4349 31.0319C43.2856 31.0758 43.1165 31.1175 42.9277 31.157C42.7389 31.1921 42.5501 31.2251 42.3612 31.2558C42.1724 31.2822 42.0012 31.3063 41.8475 31.3283C41.5181 31.3766 41.2305 31.4534 40.9846 31.5588C40.7387 31.6642 40.5477 31.8069 40.4116 31.9869C40.2755 32.1626 40.2074 32.3821 40.2074 32.6456C40.2074 33.0276 40.3457 33.3197 40.6224 33.5217C40.9034 33.7193 41.2591 33.8181 41.6894 33.8181ZM54.1416 25.4463V27.5541H48.0489V25.4463H54.1416ZM49.4321 23.0224H52.238V32.4546C52.238 32.7137 52.2776 32.9157 52.3566 33.0606C52.4356 33.2011 52.5454 33.2999 52.6859 33.357C52.8309 33.4141 52.9977 33.4426 53.1865 33.4426C53.3183 33.4426 53.45 33.4316 53.5817 33.4097C53.7135 33.3833 53.8145 33.3636 53.8847 33.3504L54.326 35.4384C54.1855 35.4823 53.9879 35.5328 53.7332 35.5899C53.4785 35.6514 53.169 35.6887 52.8045 35.7019C52.1283 35.7282 51.5355 35.6382 51.0261 35.4318C50.5211 35.2254 50.1281 34.9049 49.8471 34.4701C49.566 34.0354 49.4277 33.4865 49.4321 32.8235V23.0224ZM55.9694 35.5635V25.4463H58.7754V35.5635H55.9694ZM57.379 24.1422C56.9618 24.1422 56.604 24.0038 56.3054 23.7272C56.0111 23.4462 55.864 23.1102 55.864 22.7194C55.864 22.333 56.0111 22.0015 56.3054 21.7248C56.604 21.4438 56.9618 21.3033 57.379 21.3033C57.7961 21.3033 58.1518 21.4438 58.446 21.7248C58.7446 22.0015 58.8939 22.333 58.8939 22.7194C58.8939 23.1102 58.7446 23.4462 58.446 23.7272C58.1518 24.0038 57.7961 24.1422 57.379 24.1422ZM69.4409 28.3313L66.8721 28.4894C66.8282 28.2698 66.7338 28.0722 66.5889 27.8966C66.444 27.7165 66.253 27.5738 66.0158 27.4684C65.7831 27.3587 65.5043 27.3038 65.1793 27.3038C64.7446 27.3038 64.3779 27.396 64.0793 27.5804C63.7807 27.7605 63.6314 28.002 63.6314 28.305C63.6314 28.5465 63.728 28.7507 63.9213 28.9175C64.1145 29.0844 64.446 29.2183 64.9159 29.3193L66.747 29.6882C67.7306 29.8902 68.4639 30.2151 68.9469 30.663C69.43 31.1109 69.6715 31.6993 69.6715 32.4283C69.6715 33.0913 69.4761 33.6731 69.0852 34.1737C68.6988 34.6743 68.1675 35.0651 67.4913 35.3462C66.8194 35.6228 66.0444 35.7611 65.1661 35.7611C63.8268 35.7611 62.7598 35.4823 61.965 34.9246C61.1746 34.3626 60.7113 33.5985 60.5752 32.6324L63.335 32.4875C63.4185 32.8959 63.6205 33.2077 63.941 33.4229C64.2616 33.6336 64.6721 33.739 65.1727 33.739C65.6645 33.739 66.0597 33.6446 66.3583 33.4558C66.6613 33.2626 66.815 33.0145 66.8194 32.7115C66.815 32.4568 66.7074 32.2482 66.4967 32.0857C66.2859 31.9189 65.9609 31.7915 65.5218 31.7037L63.7698 31.3546C62.7818 31.157 62.0462 30.8145 61.5632 30.3271C61.0846 29.8397 60.8453 29.2183 60.8453 28.463C60.8453 27.8132 61.0209 27.2533 61.3722 26.7834C61.7279 26.3136 62.2263 25.9513 62.8674 25.6966C63.5129 25.4419 64.2682 25.3146 65.1332 25.3146C66.411 25.3146 67.4166 25.5846 68.1499 26.1248C68.8876 26.6649 69.318 27.4004 69.4409 28.3313ZM76.8197 25.4463V27.5541H70.727V25.4463H76.8197ZM72.1102 23.0224H74.9161V32.4546C74.9161 32.7137 74.9557 32.9157 75.0347 33.0606C75.1137 33.2011 75.2235 33.2999 75.364 33.357C75.509 33.4141 75.6758 33.4426 75.8646 33.4426C75.9964 33.4426 76.1281 33.4316 76.2598 33.4097C76.3916 33.3833 76.4926 33.3636 76.5628 33.3504L77.0041 35.4384C76.8636 35.4823 76.666 35.5328 76.4113 35.5899C76.1566 35.6514 75.8471 35.6887 75.4826 35.7019C74.8064 35.7282 74.2136 35.6382 73.7042 35.4318C73.1992 35.2254 72.8062 34.9049 72.5252 34.4701C72.2441 34.0354 72.1058 33.4865 72.1102 32.8235V23.0224ZM78.6475 35.5635V25.4463H81.4535V35.5635H78.6475ZM80.0571 24.1422C79.6399 24.1422 79.2821 24.0038 78.9835 23.7272C78.6892 23.4462 78.5421 23.1102 78.5421 22.7194C78.5421 22.333 78.6892 22.0015 78.9835 21.7248C79.2821 21.4438 79.6399 21.3033 80.0571 21.3033C80.4742 21.3033 80.8299 21.4438 81.1241 21.7248C81.4227 22.0015 81.572 22.333 81.572 22.7194C81.572 23.1102 81.4227 23.4462 81.1241 23.7272C80.8299 24.0038 80.4742 24.1422 80.0571 24.1422ZM86.2437 32.6522L86.2503 29.2864H86.6586L89.8993 25.4463H93.1202L88.7664 30.5313H88.1011L86.2437 32.6522ZM83.7012 35.5635V22.0739H86.5071V35.5635H83.7012ZM90.0245 35.5635L87.0473 31.157L88.9179 29.1744L93.3112 35.5635H90.0245ZM98.8424 22.0739H102.36L106.075 31.1373H106.233L109.948 22.0739H113.465V35.5635H110.699V26.7834H110.587L107.096 35.4977H105.212L101.721 26.7505H101.609V35.5635H98.8424V22.0739ZM118.647 35.7546C118.002 35.7546 117.426 35.6426 116.921 35.4186C116.416 35.1903 116.017 34.8544 115.723 34.4109C115.433 33.963 115.288 33.4053 115.288 32.7378C115.288 32.1758 115.391 31.7037 115.597 31.3217C115.804 30.9397 116.085 30.6323 116.441 30.3995C116.796 30.1668 117.2 29.9912 117.652 29.8726C118.109 29.754 118.588 29.6706 119.088 29.6223C119.677 29.5608 120.151 29.5037 120.511 29.4511C120.871 29.394 121.132 29.3105 121.295 29.2008C121.457 29.091 121.539 28.9285 121.539 28.7133V28.6738C121.539 28.2567 121.407 27.9339 121.143 27.7056C120.884 27.4772 120.516 27.3631 120.037 27.3631C119.532 27.3631 119.13 27.475 118.832 27.699C118.533 27.9185 118.335 28.1952 118.239 28.5289L115.644 28.3181C115.775 27.7034 116.034 27.172 116.421 26.7241C116.807 26.2719 117.306 25.925 117.916 25.6834C118.531 25.4375 119.242 25.3146 120.05 25.3146C120.612 25.3146 121.15 25.3805 121.664 25.5122C122.182 25.6439 122.641 25.8481 123.04 26.1248C123.444 26.4014 123.763 26.7571 123.996 27.1918C124.228 27.6221 124.345 28.1381 124.345 28.7397V35.5635H121.684V34.1606H121.605C121.442 34.4767 121.225 34.7556 120.952 34.9971C120.68 35.2342 120.353 35.4208 119.971 35.557C119.589 35.6887 119.148 35.7546 118.647 35.7546ZM119.451 33.8181C119.863 33.8181 120.228 33.7368 120.544 33.5743C120.86 33.4075 121.108 33.1835 121.288 32.9025C121.468 32.6215 121.558 32.3031 121.558 31.9474V30.8738C121.471 30.9309 121.35 30.9836 121.196 31.0319C121.047 31.0758 120.878 31.1175 120.689 31.157C120.5 31.1921 120.311 31.2251 120.123 31.2558C119.934 31.2822 119.762 31.3063 119.609 31.3283C119.279 31.3766 118.992 31.4534 118.746 31.5588C118.5 31.6642 118.309 31.8069 118.173 31.9869C118.037 32.1626 117.969 32.3821 117.969 32.6456C117.969 33.0276 118.107 33.3197 118.384 33.5217C118.665 33.7193 119.02 33.8181 119.451 33.8181ZM129.327 29.7145V35.5635H126.522V22.0739H129.248V27.2313H129.367C129.595 26.6341 129.964 26.1665 130.474 25.8284C130.983 25.4858 131.622 25.3146 132.39 25.3146C133.093 25.3146 133.705 25.4683 134.228 25.7757C134.755 26.0787 135.163 26.5156 135.453 27.0864C135.747 27.6529 135.892 28.3313 135.888 29.1217V35.5635H133.082V29.6223C133.086 28.9988 132.928 28.5135 132.608 28.1666C132.291 27.8197 131.848 27.6463 131.277 27.6463C130.895 27.6463 130.557 27.7275 130.263 27.89C129.973 28.0525 129.745 28.2896 129.578 28.6014C129.415 28.9087 129.332 29.2798 129.327 29.7145ZM140.981 35.7546C140.336 35.7546 139.76 35.6426 139.255 35.4186C138.75 35.1903 138.351 34.8544 138.057 34.4109C137.767 33.963 137.622 33.4053 137.622 32.7378C137.622 32.1758 137.725 31.7037 137.931 31.3217C138.138 30.9397 138.419 30.6323 138.774 30.3995C139.13 30.1668 139.534 29.9912 139.986 29.8726C140.443 29.754 140.922 29.6706 141.422 29.6223C142.011 29.5608 142.485 29.5037 142.845 29.4511C143.205 29.394 143.466 29.3105 143.629 29.2008C143.791 29.091 143.873 28.9285 143.873 28.7133V28.6738C143.873 28.2567 143.741 27.9339 143.477 27.7056C143.218 27.4772 142.849 27.3631 142.371 27.3631C141.866 27.3631 141.464 27.475 141.165 27.699C140.867 27.9185 140.669 28.1952 140.573 28.5289L137.977 28.3181C138.109 27.7034 138.368 27.172 138.755 26.7241C139.141 26.2719 139.64 25.925 140.25 25.6834C140.865 25.4375 141.576 25.3146 142.384 25.3146C142.946 25.3146 143.484 25.3805 143.998 25.5122C144.516 25.6439 144.975 25.8481 145.374 26.1248C145.778 26.4014 146.097 26.7571 146.329 27.1918C146.562 27.6221 146.679 28.1381 146.679 28.7397V35.5635H144.017V34.1606H143.938C143.776 34.4767 143.559 34.7556 143.286 34.9971C143.014 35.2342 142.687 35.4208 142.305 35.557C141.923 35.6887 141.482 35.7546 140.981 35.7546ZM141.785 33.8181C142.197 33.8181 142.562 33.7368 142.878 33.5743C143.194 33.4075 143.442 33.1835 143.622 32.9025C143.802 32.6215 143.892 32.3031 143.892 31.9474V30.8738C143.805 30.9309 143.684 30.9836 143.53 31.0319C143.381 31.0758 143.212 31.1175 143.023 31.157C142.834 31.1921 142.645 31.2251 142.456 31.2558C142.268 31.2822 142.096 31.3063 141.943 31.3283C141.613 31.3766 141.326 31.4534 141.08 31.5588C140.834 31.6642 140.643 31.8069 140.507 31.9869C140.371 32.1626 140.303 32.3821 140.303 32.6456C140.303 33.0276 140.441 33.3197 140.718 33.5217C140.999 33.7193 141.354 33.8181 141.785 33.8181ZM157.273 28.3313L154.704 28.4894C154.661 28.2698 154.566 28.0722 154.421 27.8966C154.276 27.7165 154.085 27.5738 153.848 27.4684C153.615 27.3587 153.337 27.3038 153.012 27.3038C152.577 27.3038 152.21 27.396 151.912 27.5804C151.613 27.7605 151.464 28.002 151.464 28.305C151.464 28.5465 151.56 28.7507 151.754 28.9175C151.947 29.0844 152.278 29.2183 152.748 29.3193L154.579 29.6882C155.563 29.8902 156.296 30.2151 156.779 30.663C157.262 31.1109 157.504 31.6993 157.504 32.4283C157.504 33.0913 157.308 33.6731 156.918 34.1737C156.531 34.6743 156 35.0651 155.324 35.3462C154.652 35.6228 153.877 35.7611 152.998 35.7611C151.659 35.7611 150.592 35.4823 149.797 34.9246C149.007 34.3626 148.544 33.5985 148.408 32.6324L151.167 32.4875C151.251 32.8959 151.453 33.2077 151.773 33.4229C152.094 33.6336 152.504 33.739 153.005 33.739C153.497 33.739 153.892 33.6446 154.191 33.4558C154.494 33.2626 154.647 33.0145 154.652 32.7115C154.647 32.4568 154.54 32.2482 154.329 32.0857C154.118 31.9189 153.793 31.7915 153.354 31.7037L151.602 31.3546C150.614 31.157 149.879 30.8145 149.396 30.3271C148.917 29.8397 148.678 29.2183 148.678 28.463C148.678 27.8132 148.853 27.2533 149.205 26.7834C149.56 26.3136 150.059 25.9513 150.7 25.6966C151.345 25.4419 152.101 25.3146 152.966 25.3146C154.243 25.3146 155.249 25.5846 155.982 26.1248C156.72 26.6649 157.15 27.4004 157.273 28.3313ZM159.271 35.5635V25.4463H162.077V35.5635H159.271ZM160.68 24.1422C160.263 24.1422 159.905 24.0038 159.607 23.7272C159.312 23.4462 159.165 23.1102 159.165 22.7194C159.165 22.333 159.312 22.0015 159.607 21.7248C159.905 21.4438 160.263 21.3033 160.68 21.3033C161.097 21.3033 161.453 21.4438 161.747 21.7248C162.046 22.0015 162.195 22.333 162.195 22.7194C162.195 23.1102 162.046 23.4462 161.747 23.7272C161.453 24.0038 161.097 24.1422 160.68 24.1422ZM166.32 35.5635L163.567 25.4463H166.406L167.973 32.2438H168.066L169.699 25.4463H172.485L174.145 32.2043H174.231L175.772 25.4463H178.604L175.858 35.5635H172.887L171.148 29.2008H171.023L169.284 35.5635H166.32ZM182.986 35.7546C182.341 35.7546 181.765 35.6426 181.26 35.4186C180.756 35.1903 180.356 34.8544 180.062 34.4109C179.772 33.963 179.627 33.4053 179.627 32.7378C179.627 32.1758 179.73 31.7037 179.937 31.3217C180.143 30.9397 180.424 30.6323 180.78 30.3995C181.135 30.1668 181.539 29.9912 181.992 29.8726C182.448 29.754 182.927 29.6706 183.428 29.6223C184.016 29.5608 184.49 29.5037 184.85 29.4511C185.21 29.394 185.472 29.3105 185.634 29.2008C185.797 29.091 185.878 28.9285 185.878 28.7133V28.6738C185.878 28.2567 185.746 27.9339 185.483 27.7056C185.224 27.4772 184.855 27.3631 184.376 27.3631C183.871 27.3631 183.469 27.475 183.171 27.699C182.872 27.9185 182.674 28.1952 182.578 28.5289L179.983 28.3181C180.114 27.7034 180.373 27.172 180.76 26.7241C181.146 26.2719 181.645 25.925 182.255 25.6834C182.87 25.4375 183.581 25.3146 184.389 25.3146C184.951 25.3146 185.489 25.3805 186.003 25.5122C186.521 25.6439 186.98 25.8481 187.38 26.1248C187.784 26.4014 188.102 26.7571 188.335 27.1918C188.567 27.6221 188.684 28.1381 188.684 28.7397V35.5635H186.023V34.1606H185.944C185.781 34.4767 185.564 34.7556 185.292 34.9971C185.019 35.2342 184.692 35.4208 184.31 35.557C183.928 35.6887 183.487 35.7546 182.986 35.7546ZM183.79 33.8181C184.203 33.8181 184.567 33.7368 184.883 33.5743C185.199 33.4075 185.447 33.1835 185.627 32.9025C185.808 32.6215 185.898 32.3031 185.898 31.9474V30.8738C185.81 30.9309 185.689 30.9836 185.535 31.0319C185.386 31.0758 185.217 31.1175 185.028 31.157C184.839 31.1921 184.65 31.2251 184.462 31.2558C184.273 31.2822 184.102 31.3063 183.948 31.3283C183.619 31.3766 183.331 31.4534 183.085 31.5588C182.839 31.6642 182.648 31.8069 182.512 31.9869C182.376 32.1626 182.308 32.3821 182.308 32.6456C182.308 33.0276 182.446 33.3197 182.723 33.5217C183.004 33.7193 183.359 33.8181 183.79 33.8181Z" fill="#2E3A59"/>
<path d="M52.786 89.9493H420.426V91.0231H52.786V89.9493Z" fill="#F0F0F0"/>
<path d="M52.786 177.995H420.426V179.068H52.786V177.995Z" fill="#F0F0F0"/>
<path d="M52.786 266.04H420.426V267.114H52.786V266.04Z" fill="#F0F0F0"/>
<path d="M52.786 133.972H420.426V135.046H52.786V133.972Z" fill="#F0F0F0"/>
<path d="M52.786 222.017H420.426V223.091H52.786V222.017Z" fill="#F0F0F0"/>
<path d="M52.786 310.063H420.426V311.136H52.786V310.063Z" fill="#F0F0F0"/>
<path d="M72.5516 213.428H122.624V345.496H72.5516V213.428Z" fill="#0052B4"/>
<path d="M258.348 269.261H309.739V345.496H258.348V269.261Z" fill="#0052B4"/>
<path d="M134.484 249.934H185.874V345.496H134.484V249.934Z" fill="#0052B4"/>
<path d="M321.598 110.35H371.671V345.496H321.598V110.35Z" fill="#0052B4"/>
<path d="M197.734 154.373H246.489V345.496H197.734V154.373Z" fill="#0052B4"/>
<path d="M293.926 255.84C293.926 259.694 290.092 262.819 285.361 262.819C280.631 262.819 276.796 259.694 276.796 255.84C276.796 251.985 280.631 248.86 285.361 248.86C290.092 248.86 293.926 251.985 293.926 255.84Z" fill="#018183"/>
<path d="M242.536 196.248C242.536 193.876 244.381 191.953 246.657 191.953H317.477C319.753 191.953 321.598 193.876 321.598 196.248V226.312C321.598 228.684 319.753 230.607 317.477 230.607H246.657C244.381 230.607 242.536 228.684 242.536 226.312V196.248Z" fill="#2E3A59" fill-opacity="0.4"/>
<path d="M273.296 211.28H271.81L270.781 208.234H266.246L265.218 211.28H263.802L267.619 200.351H269.479L273.296 211.28ZM270.352 206.986L268.514 201.621L266.669 206.986H270.352Z" fill="white"/>
<path d="M281.584 203.081L278.401 211.28H277.07L273.908 203.081H275.345L277.782 209.607L280.197 203.081H281.584Z" fill="white"/>
<path d="M289.697 210.348C289.697 211.738 289.395 212.758 288.789 213.409C288.183 214.059 287.251 214.385 285.993 214.385C285.575 214.385 285.167 214.353 284.768 214.289C284.373 214.231 283.984 214.145 283.599 214.033V212.623H283.669C283.885 212.711 284.228 212.819 284.697 212.946C285.167 213.078 285.636 213.144 286.106 213.144C286.556 213.144 286.93 213.088 287.225 212.976C287.521 212.863 287.751 212.706 287.916 212.506C288.08 212.315 288.197 212.085 288.268 211.816C288.338 211.547 288.373 211.246 288.373 210.913V210.164C287.974 210.497 287.592 210.747 287.225 210.913C286.864 211.075 286.401 211.155 285.838 211.155C284.899 211.155 284.153 210.803 283.599 210.098C283.049 209.389 282.775 208.391 282.775 207.104C282.775 206.399 282.868 205.792 283.056 205.283C283.249 204.77 283.509 204.327 283.838 203.955C284.143 203.607 284.514 203.338 284.951 203.147C285.387 202.952 285.822 202.854 286.254 202.854C286.709 202.854 287.089 202.903 287.394 203.001C287.704 203.094 288.031 203.238 288.373 203.434L288.458 203.081H289.697V210.348ZM288.373 209.027V204.557C288.021 204.39 287.693 204.273 287.387 204.204C287.087 204.131 286.786 204.094 286.486 204.094C285.758 204.094 285.185 204.349 284.768 204.858C284.35 205.367 284.141 206.105 284.141 207.074C284.141 207.994 284.296 208.692 284.606 209.166C284.915 209.641 285.43 209.878 286.148 209.878C286.533 209.878 286.918 209.802 287.303 209.651C287.693 209.494 288.049 209.286 288.373 209.027Z" fill="white"/>
<path d="M269.388 218.702C269.388 219.117 269.318 219.503 269.177 219.859C269.04 220.212 268.847 220.518 268.597 220.778C268.288 221.101 267.921 221.344 267.499 221.508C267.076 221.667 266.543 221.747 265.899 221.747H264.704V225.238H263.509V215.871H265.947C266.487 215.871 266.943 215.919 267.318 216.015C267.692 216.108 268.024 216.254 268.314 216.456C268.656 216.695 268.919 216.993 269.104 217.349C269.294 217.706 269.388 218.157 269.388 218.702ZM268.145 218.733C268.145 218.41 268.09 218.129 267.982 217.89C267.873 217.651 267.708 217.456 267.487 217.305C267.294 217.175 267.072 217.083 266.823 217.028C266.577 216.97 266.265 216.94 265.887 216.94H264.704V220.684H265.712C266.195 220.684 266.587 220.64 266.889 220.551C267.191 220.459 267.436 220.314 267.626 220.117C267.815 219.916 267.948 219.704 268.024 219.482C268.104 219.26 268.145 219.01 268.145 218.733Z" fill="white"/>
<path d="M276.626 221.728C276.626 222.873 276.344 223.777 275.781 224.439C275.217 225.102 274.463 225.434 273.517 225.434C272.563 225.434 271.805 225.102 271.241 224.439C270.682 223.777 270.402 222.873 270.402 221.728C270.402 220.583 270.682 219.679 271.241 219.016C271.805 218.349 272.563 218.016 273.517 218.016C274.463 218.016 275.217 218.349 275.781 219.016C276.344 219.679 276.626 220.583 276.626 221.728ZM275.455 221.728C275.455 220.818 275.284 220.143 274.942 219.702C274.6 219.258 274.125 219.035 273.517 219.035C272.901 219.035 272.422 219.258 272.08 219.702C271.742 220.143 271.573 220.818 271.573 221.728C271.573 222.609 271.744 223.278 272.086 223.735C272.429 224.188 272.905 224.414 273.517 224.414C274.121 224.414 274.594 224.19 274.936 223.741C275.282 223.288 275.455 222.617 275.455 221.728Z" fill="white"/>
<path d="M279.608 217.035H278.328V215.808H279.608V217.035ZM279.535 225.238H278.4V218.211H279.535V225.238Z" fill="white"/>
<path d="M287.419 225.238H286.284V221.237C286.284 220.914 286.266 220.612 286.23 220.331C286.193 220.046 286.127 219.824 286.03 219.664C285.93 219.488 285.785 219.358 285.596 219.274C285.407 219.186 285.161 219.142 284.859 219.142C284.55 219.142 284.226 219.222 283.888 219.381C283.55 219.541 283.226 219.744 282.916 219.992V225.238H281.781V218.211H282.916V218.991C283.27 218.685 283.636 218.446 284.014 218.274C284.393 218.102 284.781 218.016 285.179 218.016C285.908 218.016 286.463 218.245 286.845 218.702C287.228 219.159 287.419 219.817 287.419 220.677V225.238Z" fill="white"/>
<path d="M293.105 225.176C292.892 225.234 292.658 225.283 292.405 225.32C292.155 225.358 291.932 225.377 291.735 225.377C291.047 225.377 290.524 225.184 290.165 224.798C289.807 224.412 289.628 223.794 289.628 222.942V219.205H288.862V218.211H289.628V216.192H290.763V218.211H293.105V219.205H290.763V222.407C290.763 222.776 290.771 223.066 290.787 223.276C290.803 223.481 290.86 223.674 290.956 223.854C291.045 224.022 291.165 224.146 291.318 224.226C291.475 224.301 291.713 224.339 292.031 224.339C292.216 224.339 292.409 224.312 292.61 224.257C292.811 224.198 292.956 224.15 293.045 224.112H293.105V225.176Z" fill="white"/>
<path d="M22.0008 92.2184C22.0008 92.8532 21.7996 93.3718 21.3971 93.7745C20.9974 94.1743 20.5064 94.3743 19.9243 94.3743C19.6292 94.3743 19.3609 94.3267 19.1194 94.2317C18.878 94.1366 18.6647 93.9954 18.4796 93.808C18.2488 93.576 18.0704 93.2684 17.9443 92.8853C17.8209 92.5022 17.7592 92.0409 17.7592 91.5012C17.7592 90.9476 17.8156 90.4568 17.9282 90.029C18.0436 89.6012 18.226 89.2209 18.4755 88.8882C18.7116 88.5722 19.0161 88.3262 19.389 88.15C19.762 87.9711 20.1966 87.8816 20.6929 87.8816C20.8512 87.8816 20.984 87.8886 21.0913 87.9026C21.1986 87.9165 21.3073 87.9417 21.4173 87.9781V88.7792H21.377C21.3019 88.7372 21.1879 88.6981 21.035 88.6617C20.8847 88.6226 20.7305 88.603 20.5722 88.603C19.9954 88.603 19.5353 88.7917 19.1918 89.1692C18.8484 89.5439 18.6486 90.0514 18.5922 90.6917C18.8176 90.5491 19.0389 90.4415 19.2562 90.3688C19.4762 90.2933 19.7298 90.2555 20.0168 90.2555C20.2717 90.2555 20.4957 90.2807 20.6889 90.331C20.8847 90.3786 21.0846 90.4764 21.2885 90.6246C21.5246 90.7952 21.7016 91.0105 21.8197 91.2705C21.9404 91.5306 22.0008 91.8465 22.0008 92.2184ZM21.1839 92.252C21.1839 91.9919 21.1463 91.7766 21.0712 91.6061C20.9987 91.4355 20.878 91.2873 20.709 91.1615C20.5856 91.072 20.4488 91.0133 20.2985 90.9853C20.1483 90.9574 19.9913 90.9434 19.8277 90.9434C19.5996 90.9434 19.3877 90.9713 19.1918 91.0273C18.996 91.0832 18.7948 91.1699 18.5882 91.2873C18.5828 91.3488 18.5788 91.4089 18.5761 91.4677C18.5735 91.5236 18.5721 91.5949 18.5721 91.6816C18.5721 92.1234 18.615 92.4729 18.7009 92.7301C18.7894 92.9846 18.9102 93.1859 19.0631 93.3341C19.1865 93.4571 19.3193 93.548 19.4615 93.6067C19.6063 93.6626 19.7633 93.6906 19.9323 93.6906C20.3213 93.6906 20.6272 93.5676 20.8498 93.3215C21.0725 93.0726 21.1839 92.7161 21.1839 92.252Z" fill="black"/>
<path d="M27.1438 91.1195C27.1438 92.2408 26.9747 93.0643 26.6367 93.5899C26.3014 94.1128 25.7795 94.3743 25.0713 94.3743C24.3523 94.3743 23.8264 94.1086 23.4938 93.5774C23.1638 93.0461 22.9988 92.2296 22.9988 91.1279C22.9988 90.0179 23.1665 89.1986 23.5018 88.6701C23.8372 88.1388 24.3603 87.8732 25.0713 87.8732C25.7903 87.8732 26.3148 88.143 26.6448 88.6827C26.9774 89.2195 27.1438 90.0318 27.1438 91.1195ZM26.0854 93.0237C26.1793 92.7972 26.2423 92.5316 26.2745 92.2268C26.3094 91.9192 26.3268 91.5501 26.3268 91.1195C26.3268 90.6945 26.3094 90.3254 26.2745 90.0123C26.2423 89.6991 26.1779 89.4335 26.0814 89.2154C25.9875 89 25.8587 88.8379 25.695 88.7288C25.5341 88.6198 25.3261 88.5652 25.0713 88.5652C24.8191 88.5652 24.6098 88.6198 24.4435 88.7288C24.2798 88.8379 24.1497 89.0028 24.0531 89.2237C23.9619 89.4307 23.8989 89.7005 23.864 90.0332C23.8318 90.366 23.8157 90.7309 23.8157 91.1279C23.8157 91.5641 23.8305 91.929 23.86 92.2226C23.8895 92.5162 23.9525 92.7791 24.0491 93.0111C24.1377 93.2292 24.2624 93.3956 24.4234 93.5102C24.587 93.6249 24.803 93.6822 25.0713 93.6822C25.3235 93.6822 25.5327 93.6277 25.6991 93.5186C25.8654 93.4096 25.9942 93.2446 26.0854 93.0237Z" fill="black"/>
<path d="M31.2445 89.7312C31.2445 90.3576 31.117 90.8231 30.8622 91.1279C30.61 91.4327 30.2451 91.5851 29.7676 91.5851C29.2793 91.5851 28.9104 91.4327 28.6609 91.1279C28.4114 90.8231 28.2867 90.359 28.2867 89.7354C28.2867 89.1091 28.4141 88.6435 28.669 88.3388C28.9238 88.034 29.29 87.8816 29.7676 87.8816C30.2532 87.8816 30.6207 88.0354 30.8702 88.343C31.1197 88.6505 31.2445 89.1133 31.2445 89.7312ZM34.0252 87.999L30.8863 94.2442H30.2223L33.3612 87.999H34.0252ZM35.9569 92.512C35.9569 93.1384 35.8294 93.6039 35.5746 93.9087C35.3197 94.2135 34.9535 94.3659 34.4759 94.3659C33.9904 94.3659 33.6228 94.2121 33.3733 93.9045C33.1238 93.5969 32.999 93.1342 32.999 92.5162C32.999 91.8899 33.1251 91.4243 33.3773 91.1195C33.6322 90.8148 33.9984 90.6624 34.4759 90.6624C34.9642 90.6624 35.3331 90.8148 35.5826 91.1195C35.8321 91.4243 35.9569 91.8885 35.9569 92.512ZM30.5282 89.7312C30.5282 89.2503 30.4678 88.9148 30.3471 88.7246C30.229 88.5345 30.0359 88.4394 29.7676 88.4394C29.4939 88.4394 29.2981 88.5345 29.18 88.7246C29.062 88.9148 29.003 89.2517 29.003 89.7354C29.003 90.2192 29.062 90.5561 29.18 90.7462C29.2981 90.9336 29.4939 91.0273 29.7676 91.0273C30.0359 91.0273 30.229 90.9336 30.3471 90.7462C30.4678 90.5561 30.5282 90.2178 30.5282 89.7312ZM35.2406 92.512C35.2406 92.0311 35.1802 91.6955 35.0595 91.5054C34.9414 91.3153 34.7483 91.2202 34.48 91.2202C34.2063 91.2202 34.0105 91.3153 33.8924 91.5054C33.7744 91.6955 33.7154 92.0325 33.7154 92.5162C33.7154 92.9999 33.7744 93.3369 33.8924 93.527C34.0105 93.7144 34.2063 93.808 34.48 93.808C34.7483 93.808 34.9414 93.7144 35.0595 93.527C35.1802 93.3369 35.2406 92.9986 35.2406 92.512Z" fill="black"/>
<path d="M21.8639 136.283C21.8639 136.574 21.813 136.852 21.711 137.118C21.6091 137.383 21.4696 137.607 21.2925 137.789C21.0993 137.984 20.8686 138.135 20.6003 138.242C20.3347 138.345 20.0262 138.397 19.6748 138.397C19.3475 138.397 19.0322 138.361 18.7291 138.288C18.4259 138.218 18.1697 138.133 17.9604 138.032V137.147H18.0168C18.2368 137.292 18.4943 137.417 18.7894 137.52C19.0845 137.621 19.3743 137.671 19.6587 137.671C19.8491 137.671 20.0329 137.643 20.21 137.587C20.3897 137.532 20.5494 137.434 20.6889 137.294C20.8069 137.174 20.8954 137.03 20.9545 136.862C21.0162 136.694 21.047 136.5 21.047 136.279C21.047 136.064 21.0108 135.882 20.9384 135.734C20.8686 135.585 20.7707 135.467 20.6446 135.377C20.5051 135.271 20.3347 135.197 20.1335 135.155C19.935 135.11 19.7123 135.088 19.4655 135.088C19.2294 135.088 19.0014 135.104 18.7814 135.138C18.5641 135.172 18.3763 135.205 18.218 135.239V132.022H21.8237V132.756H18.9947V134.417C19.11 134.405 19.2281 134.397 19.3488 134.391C19.4695 134.386 19.5742 134.383 19.6627 134.383C19.9873 134.383 20.2717 134.412 20.5158 134.471C20.76 134.527 20.984 134.628 21.1879 134.773C21.4025 134.927 21.5688 135.125 21.6869 135.369C21.8049 135.612 21.8639 135.917 21.8639 136.283Z" fill="black"/>
<path d="M27.1438 135.142C27.1438 136.263 26.9747 137.087 26.6367 137.613C26.3014 138.135 25.7795 138.397 25.0713 138.397C24.3523 138.397 23.8264 138.131 23.4938 137.6C23.1638 137.069 22.9988 136.252 22.9988 135.151C22.9988 134.041 23.1665 133.221 23.5018 132.693C23.8372 132.161 24.3603 131.896 25.0713 131.896C25.7903 131.896 26.3148 132.166 26.6448 132.705C26.9774 133.242 27.1438 134.054 27.1438 135.142ZM26.0854 137.046C26.1793 136.82 26.2423 136.554 26.2745 136.249C26.3094 135.942 26.3268 135.573 26.3268 135.142C26.3268 134.717 26.3094 134.348 26.2745 134.035C26.2423 133.722 26.1779 133.456 26.0814 133.238C25.9875 133.023 25.8587 132.861 25.695 132.751C25.5341 132.642 25.3261 132.588 25.0713 132.588C24.8191 132.588 24.6098 132.642 24.4435 132.751C24.2798 132.861 24.1497 133.026 24.0531 133.246C23.9619 133.453 23.8989 133.723 23.864 134.056C23.8318 134.389 23.8157 134.754 23.8157 135.151C23.8157 135.587 23.8305 135.952 23.86 136.245C23.8895 136.539 23.9525 136.802 24.0491 137.034C24.1377 137.252 24.2624 137.418 24.4234 137.533C24.587 137.648 24.803 137.705 25.0713 137.705C25.3235 137.705 25.5327 137.65 25.6991 137.541C25.8654 137.432 25.9942 137.267 26.0854 137.046Z" fill="black"/>
<path d="M31.2445 133.754C31.2445 134.38 31.117 134.846 30.8622 135.151C30.61 135.455 30.2451 135.608 29.7676 135.608C29.2793 135.608 28.9104 135.455 28.6609 135.151C28.4114 134.846 28.2867 134.382 28.2867 133.758C28.2867 133.132 28.4141 132.666 28.669 132.361C28.9238 132.057 29.29 131.904 29.7676 131.904C30.2532 131.904 30.6207 132.058 30.8702 132.366C31.1197 132.673 31.2445 133.136 31.2445 133.754ZM34.0252 132.022L30.8863 138.267H30.2223L33.3612 132.022H34.0252ZM35.9569 136.535C35.9569 137.161 35.8294 137.627 35.5746 137.931C35.3197 138.236 34.9535 138.389 34.4759 138.389C33.9904 138.389 33.6228 138.235 33.3733 137.927C33.1238 137.62 32.999 137.157 32.999 136.539C32.999 135.913 33.1251 135.447 33.3773 135.142C33.6322 134.837 33.9984 134.685 34.4759 134.685C34.9642 134.685 35.3331 134.837 35.5826 135.142C35.8321 135.447 35.9569 135.911 35.9569 136.535ZM30.5282 133.754C30.5282 133.273 30.4678 132.937 30.3471 132.747C30.229 132.557 30.0359 132.462 29.7676 132.462C29.4939 132.462 29.2981 132.557 29.18 132.747C29.062 132.937 29.003 133.274 29.003 133.758C29.003 134.242 29.062 134.579 29.18 134.769C29.2981 134.956 29.4939 135.05 29.7676 135.05C30.0359 135.05 30.229 134.956 30.3471 134.769C30.4678 134.579 30.5282 134.24 30.5282 133.754ZM35.2406 136.535C35.2406 136.054 35.1802 135.718 35.0595 135.528C34.9414 135.338 34.7483 135.243 34.48 135.243C34.2063 135.243 34.0105 135.338 33.8924 135.528C33.7744 135.718 33.7154 136.055 33.7154 136.539C33.7154 137.023 33.7744 137.36 33.8924 137.55C34.0105 137.737 34.2063 137.831 34.48 137.831C34.7483 137.831 34.9414 137.737 35.0595 137.55C35.1802 137.36 35.2406 137.021 35.2406 136.535Z" fill="black"/>
<path d="M22.0491 180.532H21.1597V182.29H20.3871V180.532H17.5178V179.568L20.4192 176.044H21.1597V179.861H22.0491V180.532ZM20.3871 179.861V177.043L18.0651 179.861H20.3871Z" fill="black"/>
<path d="M27.1438 179.165C27.1438 180.286 26.9747 181.11 26.6367 181.635C26.3014 182.158 25.7795 182.42 25.0713 182.42C24.3523 182.42 23.8264 182.154 23.4938 181.623C23.1638 181.091 22.9988 180.275 22.9988 179.173C22.9988 178.063 23.1665 177.244 23.5018 176.715C23.8372 176.184 24.3603 175.919 25.0713 175.919C25.7903 175.919 26.3148 176.188 26.6448 176.728C26.9774 177.265 27.1438 178.077 27.1438 179.165ZM26.0854 181.069C26.1793 180.843 26.2423 180.577 26.2745 180.272C26.3094 179.965 26.3268 179.595 26.3268 179.165C26.3268 178.74 26.3094 178.371 26.2745 178.058C26.2423 177.744 26.1779 177.479 26.0814 177.261C25.9875 177.045 25.8587 176.883 25.695 176.774C25.5341 176.665 25.3261 176.611 25.0713 176.611C24.8191 176.611 24.6098 176.665 24.4435 176.774C24.2798 176.883 24.1497 177.048 24.0531 177.269C23.9619 177.476 23.8989 177.746 23.864 178.079C23.8318 178.411 23.8157 178.776 23.8157 179.173C23.8157 179.609 23.8305 179.974 23.86 180.268C23.8895 180.562 23.9525 180.824 24.0491 181.056C24.1377 181.275 24.2624 181.441 24.4234 181.556C24.587 181.67 24.803 181.728 25.0713 181.728C25.3235 181.728 25.5327 181.673 25.6991 181.564C25.8654 181.455 25.9942 181.29 26.0854 181.069Z" fill="black"/>
<path d="M31.2445 177.777C31.2445 178.403 31.117 178.868 30.8622 179.173C30.61 179.478 30.2451 179.63 29.7676 179.63C29.2793 179.63 28.9104 179.478 28.6609 179.173C28.4114 178.868 28.2867 178.404 28.2867 177.781C28.2867 177.154 28.4141 176.689 28.669 176.384C28.9238 176.079 29.29 175.927 29.7676 175.927C30.2532 175.927 30.6207 176.081 30.8702 176.388C31.1197 176.696 31.2445 177.159 31.2445 177.777ZM34.0252 176.044L30.8863 182.29H30.2223L33.3612 176.044H34.0252ZM35.9569 180.557C35.9569 181.184 35.8294 181.649 35.5746 181.954C35.3197 182.259 34.9535 182.411 34.4759 182.411C33.9904 182.411 33.6228 182.257 33.3733 181.95C33.1238 181.642 32.999 181.179 32.999 180.562C32.999 179.935 33.1251 179.47 33.3773 179.165C33.6322 178.86 33.9984 178.708 34.4759 178.708C34.9642 178.708 35.3331 178.86 35.5826 179.165C35.8321 179.47 35.9569 179.934 35.9569 180.557ZM30.5282 177.777C30.5282 177.296 30.4678 176.96 30.3471 176.77C30.229 176.58 30.0359 176.485 29.7676 176.485C29.4939 176.485 29.2981 176.58 29.18 176.77C29.062 176.96 29.003 177.297 29.003 177.781C29.003 178.264 29.062 178.601 29.18 178.792C29.2981 178.979 29.4939 179.073 29.7676 179.073C30.0359 179.073 30.229 178.979 30.3471 178.792C30.4678 178.601 30.5282 178.263 30.5282 177.777ZM35.2406 180.557C35.2406 180.076 35.1802 179.741 35.0595 179.551C34.9414 179.361 34.7483 179.266 34.48 179.266C34.2063 179.266 34.0105 179.361 33.8924 179.551C33.7744 179.741 33.7154 180.078 33.7154 180.562C33.7154 181.045 33.7744 181.382 33.8924 181.572C34.0105 181.76 34.2063 181.853 34.48 181.853C34.7483 181.853 34.9414 181.76 35.0595 181.572C35.1802 181.382 35.2406 181.044 35.2406 180.557Z" fill="black"/>
<path d="M21.9122 270.335H17.8558V269.458C18.1375 269.207 18.4192 268.955 18.7009 268.703C18.9853 268.452 19.2495 268.201 19.4937 267.953C20.0088 267.432 20.3616 267.02 20.552 266.715C20.7425 266.408 20.8378 266.076 20.8378 265.721C20.8378 265.397 20.7345 265.144 20.5279 264.962C20.324 264.778 20.0383 264.685 19.6707 264.685C19.4266 264.685 19.1623 264.73 18.878 264.819C18.5936 264.909 18.3159 265.046 18.0449 265.23H18.0047V264.35C18.1952 264.252 18.4487 264.162 18.7653 264.081C19.0845 264 19.3931 263.96 19.6909 263.96C20.3052 263.96 20.7868 264.115 21.1356 264.425C21.4843 264.733 21.6587 265.151 21.6587 265.679C21.6587 265.917 21.6292 266.139 21.5702 266.346C21.5138 266.55 21.4293 266.745 21.3167 266.929C21.212 267.103 21.0886 267.273 20.9464 267.441C20.8069 267.609 20.6366 267.795 20.4353 267.999C20.1483 268.292 19.8518 268.577 19.546 268.854C19.2401 269.128 18.9544 269.383 18.6888 269.618H21.9122V270.335Z" fill="black"/>
<path d="M27.1438 267.21C27.1438 268.331 26.9747 269.155 26.6367 269.681C26.3014 270.203 25.7795 270.465 25.0713 270.465C24.3523 270.465 23.8264 270.199 23.4938 269.668C23.1638 269.137 22.9988 268.32 22.9988 267.219C22.9988 266.108 23.1665 265.289 23.5018 264.761C23.8372 264.229 24.3603 263.964 25.0713 263.964C25.7903 263.964 26.3148 264.234 26.6448 264.773C26.9774 265.31 27.1438 266.122 27.1438 267.21ZM26.0854 269.114C26.1793 268.888 26.2423 268.622 26.2745 268.317C26.3094 268.01 26.3268 267.641 26.3268 267.21C26.3268 266.785 26.3094 266.416 26.2745 266.103C26.2423 265.79 26.1779 265.524 26.0814 265.306C25.9875 265.091 25.8587 264.929 25.695 264.819C25.5341 264.71 25.3261 264.656 25.0713 264.656C24.8191 264.656 24.6098 264.71 24.4435 264.819C24.2798 264.929 24.1497 265.093 24.0531 265.314C23.9619 265.521 23.8989 265.791 23.864 266.124C23.8318 266.457 23.8157 266.822 23.8157 267.219C23.8157 267.655 23.8305 268.02 23.86 268.313C23.8895 268.607 23.9525 268.87 24.0491 269.102C24.1377 269.32 24.2624 269.486 24.4234 269.601C24.587 269.716 24.803 269.773 25.0713 269.773C25.3235 269.773 25.5327 269.718 25.6991 269.609C25.8654 269.5 25.9942 269.335 26.0854 269.114Z" fill="black"/>
<path d="M31.2445 265.822C31.2445 266.448 31.117 266.914 30.8622 267.219C30.61 267.523 30.2451 267.676 29.7676 267.676C29.2793 267.676 28.9104 267.523 28.6609 267.219C28.4114 266.914 28.2867 266.45 28.2867 265.826C28.2867 265.2 28.4141 264.734 28.669 264.429C28.9238 264.125 29.29 263.972 29.7676 263.972C30.2532 263.972 30.6207 264.126 30.8702 264.434C31.1197 264.741 31.2445 265.204 31.2445 265.822ZM34.0252 264.09L30.8863 270.335H30.2223L33.3612 264.09H34.0252ZM35.9569 268.603C35.9569 269.229 35.8294 269.695 35.5746 269.999C35.3197 270.304 34.9535 270.457 34.4759 270.457C33.9904 270.457 33.6228 270.303 33.3733 269.995C33.1238 269.688 32.999 269.225 32.999 268.607C32.999 267.981 33.1251 267.515 33.3773 267.21C33.6322 266.905 33.9984 266.753 34.4759 266.753C34.9642 266.753 35.3331 266.905 35.5826 267.21C35.8321 267.515 35.9569 267.979 35.9569 268.603ZM30.5282 265.822C30.5282 265.341 30.4678 265.005 30.3471 264.815C30.229 264.625 30.0359 264.53 29.7676 264.53C29.4939 264.53 29.2981 264.625 29.18 264.815C29.062 265.005 29.003 265.342 29.003 265.826C29.003 266.31 29.062 266.647 29.18 266.837C29.2981 267.024 29.4939 267.118 29.7676 267.118C30.0359 267.118 30.229 267.024 30.3471 266.837C30.4678 266.647 30.5282 266.308 30.5282 265.822ZM35.2406 268.603C35.2406 268.122 35.1802 267.786 35.0595 267.596C34.9414 267.406 34.7483 267.311 34.48 267.311C34.2063 267.311 34.0105 267.406 33.8924 267.596C33.7744 267.786 33.7154 268.123 33.7154 268.607C33.7154 269.091 33.7744 269.428 33.8924 269.618C34.0105 269.805 34.2063 269.899 34.48 269.899C34.7483 269.899 34.9414 269.805 35.0595 269.618C35.1802 269.428 35.2406 269.089 35.2406 268.603Z" fill="black"/>
<path d="M21.5702 314.358H18.3266V313.72H19.5742V309.534H18.3266V308.964C18.4957 308.964 18.6767 308.95 18.8699 308.922C19.0631 308.891 19.2093 308.848 19.3086 308.792C19.432 308.722 19.5285 308.634 19.5983 308.528C19.6707 308.419 19.7123 308.273 19.723 308.091H20.3468V313.72H21.5702V314.358Z" fill="black"/>
<path d="M27.1438 311.233C27.1438 312.354 26.9747 313.178 26.6367 313.703C26.3014 314.226 25.7795 314.488 25.0713 314.488C24.3523 314.488 23.8264 314.222 23.4938 313.691C23.1638 313.159 22.9988 312.343 22.9988 311.241C22.9988 310.131 23.1665 309.312 23.5018 308.783C23.8372 308.252 24.3603 307.987 25.0713 307.987C25.7903 307.987 26.3148 308.256 26.6448 308.796C26.9774 309.333 27.1438 310.145 27.1438 311.233ZM26.0854 313.137C26.1793 312.911 26.2423 312.645 26.2745 312.34C26.3094 312.033 26.3268 311.663 26.3268 311.233C26.3268 310.808 26.3094 310.439 26.2745 310.126C26.2423 309.812 26.1779 309.547 26.0814 309.329C25.9875 309.113 25.8587 308.951 25.695 308.842C25.5341 308.733 25.3261 308.679 25.0713 308.679C24.8191 308.679 24.6098 308.733 24.4435 308.842C24.2798 308.951 24.1497 309.116 24.0531 309.337C23.9619 309.544 23.8989 309.814 23.864 310.147C23.8318 310.479 23.8157 310.844 23.8157 311.241C23.8157 311.677 23.8305 312.042 23.86 312.336C23.8895 312.63 23.9525 312.892 24.0491 313.124C24.1377 313.343 24.2624 313.509 24.4234 313.624C24.587 313.738 24.803 313.796 25.0713 313.796C25.3235 313.796 25.5327 313.741 25.6991 313.632C25.8654 313.523 25.9942 313.358 26.0854 313.137Z" fill="black"/>
<path d="M31.2445 309.845C31.2445 310.471 31.117 310.936 30.8622 311.241C30.61 311.546 30.2451 311.698 29.7676 311.698C29.2793 311.698 28.9104 311.546 28.6609 311.241C28.4114 310.936 28.2867 310.472 28.2867 309.849C28.2867 309.222 28.4141 308.757 28.669 308.452C28.9238 308.147 29.29 307.995 29.7676 307.995C30.2532 307.995 30.6207 308.149 30.8702 308.456C31.1197 308.764 31.2445 309.227 31.2445 309.845ZM34.0252 308.112L30.8863 314.358H30.2223L33.3612 308.112H34.0252ZM35.9569 312.625C35.9569 313.252 35.8294 313.717 35.5746 314.022C35.3197 314.327 34.9535 314.479 34.4759 314.479C33.9904 314.479 33.6228 314.325 33.3733 314.018C33.1238 313.71 32.999 313.247 32.999 312.63C32.999 312.003 33.1251 311.538 33.3773 311.233C33.6322 310.928 33.9984 310.776 34.4759 310.776C34.9642 310.776 35.3331 310.928 35.5826 311.233C35.8321 311.538 35.9569 312.002 35.9569 312.625ZM30.5282 309.845C30.5282 309.364 30.4678 309.028 30.3471 308.838C30.229 308.648 30.0359 308.553 29.7676 308.553C29.4939 308.553 29.2981 308.648 29.18 308.838C29.062 309.028 29.003 309.365 29.003 309.849C29.003 310.332 29.062 310.669 29.18 310.86C29.2981 311.047 29.4939 311.141 29.7676 311.141C30.0359 311.141 30.229 311.047 30.3471 310.86C30.4678 310.669 30.5282 310.331 30.5282 309.845ZM35.2406 312.625C35.2406 312.144 35.1802 311.809 35.0595 311.619C34.9414 311.429 34.7483 311.333 34.48 311.333C34.2063 311.333 34.0105 311.429 33.8924 311.619C33.7744 311.809 33.7154 312.146 33.7154 312.63C33.7154 313.113 33.7744 313.45 33.8924 313.64C34.0105 313.828 34.2063 313.921 34.48 313.921C34.7483 313.921 34.9414 313.828 35.0595 313.64C35.1802 313.45 35.2406 313.112 35.2406 312.625Z" fill="black"/>
<path d="M21.3851 223.305C21.5138 223.425 21.6198 223.576 21.703 223.758C21.7861 223.94 21.8277 224.175 21.8277 224.463C21.8277 224.748 21.7781 225.009 21.6788 225.247C21.5796 225.485 21.4401 225.691 21.2603 225.868C21.0591 226.063 20.8217 226.209 20.548 226.304C20.2771 226.396 19.9793 226.442 19.6546 226.442C19.322 226.442 18.9947 226.4 18.6727 226.316C18.3508 226.235 18.0865 226.146 17.8799 226.048V225.171H17.9403C18.1683 225.328 18.4366 225.458 18.7452 225.561C19.0537 225.665 19.3515 225.717 19.6385 225.717C19.8076 225.717 19.9873 225.687 20.1778 225.629C20.3683 225.57 20.5225 225.483 20.6406 225.369C20.764 225.245 20.8552 225.11 20.9142 224.962C20.9759 224.813 21.0068 224.626 21.0068 224.4C21.0068 224.176 20.9719 223.991 20.9022 223.846C20.8351 223.698 20.7412 223.582 20.6205 223.498C20.4997 223.411 20.3535 223.352 20.1818 223.322C20.0101 223.288 19.825 223.271 19.6265 223.271H19.2643V222.575H19.546C19.9538 222.575 20.2784 222.487 20.5199 222.311C20.764 222.132 20.8861 221.872 20.8861 221.531C20.8861 221.38 20.8552 221.248 20.7935 221.137C20.7318 221.022 20.6459 220.928 20.5359 220.856C20.4206 220.783 20.2972 220.732 20.1657 220.705C20.0343 220.677 19.8854 220.663 19.719 220.663C19.4642 220.663 19.1932 220.71 18.9061 220.805C18.6191 220.9 18.3481 221.034 18.0932 221.208H18.053V220.331C18.2435 220.233 18.497 220.144 18.8136 220.063C19.1328 219.979 19.4414 219.937 19.7391 219.937C20.0316 219.937 20.2891 219.965 20.5118 220.021C20.7345 220.077 20.9357 220.166 21.1154 220.289C21.3086 220.424 21.4548 220.586 21.5541 220.776C21.6533 220.966 21.703 221.188 21.703 221.443C21.703 221.789 21.5849 222.093 21.3488 222.353C21.1154 222.61 20.8391 222.772 20.5199 222.839V222.898C20.6486 222.92 20.7962 222.968 20.9625 223.041C21.1289 223.111 21.2697 223.199 21.3851 223.305Z" fill="black"/>
<path d="M27.1438 223.188C27.1438 224.309 26.9747 225.132 26.6367 225.658C26.3014 226.181 25.7795 226.442 25.0713 226.442C24.3523 226.442 23.8264 226.177 23.4938 225.645C23.1638 225.114 22.9988 224.298 22.9988 223.196C22.9988 222.086 23.1665 221.267 23.5018 220.738C23.8372 220.207 24.3603 219.941 25.0713 219.941C25.7903 219.941 26.3148 220.211 26.6448 220.751C26.9774 221.288 27.1438 222.1 27.1438 223.188ZM26.0854 225.092C26.1793 224.865 26.2423 224.6 26.2745 224.295C26.3094 223.987 26.3268 223.618 26.3268 223.188C26.3268 222.762 26.3094 222.393 26.2745 222.08C26.2423 221.767 26.1779 221.501 26.0814 221.283C25.9875 221.068 25.8587 220.906 25.695 220.797C25.5341 220.688 25.3261 220.633 25.0713 220.633C24.8191 220.633 24.6098 220.688 24.4435 220.797C24.2798 220.906 24.1497 221.071 24.0531 221.292C23.9619 221.499 23.8989 221.768 23.864 222.101C23.8318 222.434 23.8157 222.799 23.8157 223.196C23.8157 223.632 23.8305 223.997 23.86 224.291C23.8895 224.584 23.9525 224.847 24.0491 225.079C24.1377 225.297 24.2624 225.464 24.4234 225.578C24.587 225.693 24.803 225.75 25.0713 225.75C25.3235 225.75 25.5327 225.696 25.6991 225.587C25.8654 225.478 25.9942 225.313 26.0854 225.092Z" fill="black"/>
<path d="M31.2445 221.799C31.2445 222.426 31.117 222.891 30.8622 223.196C30.61 223.501 30.2451 223.653 29.7676 223.653C29.2793 223.653 28.9104 223.501 28.6609 223.196C28.4114 222.891 28.2867 222.427 28.2867 221.803C28.2867 221.177 28.4141 220.712 28.669 220.407C28.9238 220.102 29.29 219.95 29.7676 219.95C30.2532 219.95 30.6207 220.103 30.8702 220.411C31.1197 220.719 31.2445 221.181 31.2445 221.799ZM34.0252 220.067L30.8863 226.312H30.2223L33.3612 220.067H34.0252ZM35.9569 224.58C35.9569 225.206 35.8294 225.672 35.5746 225.977C35.3197 226.281 34.9535 226.434 34.4759 226.434C33.9904 226.434 33.6228 226.28 33.3733 225.972C33.1238 225.665 32.999 225.202 32.999 224.584C32.999 223.958 33.1251 223.492 33.3773 223.188C33.6322 222.883 33.9984 222.73 34.4759 222.73C34.9642 222.73 35.3331 222.883 35.5826 223.188C35.8321 223.492 35.9569 223.956 35.9569 224.58ZM30.5282 221.799C30.5282 221.318 30.4678 220.983 30.3471 220.793C30.229 220.602 30.0359 220.507 29.7676 220.507C29.4939 220.507 29.2981 220.602 29.18 220.793C29.062 220.983 29.003 221.32 29.003 221.803C29.003 222.287 29.062 222.624 29.18 222.814C29.2981 223.002 29.4939 223.095 29.7676 223.095C30.0359 223.095 30.229 223.002 30.3471 222.814C30.4678 222.624 30.5282 222.286 30.5282 221.799ZM35.2406 224.58C35.2406 224.099 35.1802 223.764 35.0595 223.573C34.9414 223.383 34.7483 223.288 34.48 223.288C34.2063 223.288 34.0105 223.383 33.8924 223.573C33.7744 223.764 33.7154 224.1 33.7154 224.584C33.7154 225.068 33.7744 225.405 33.8924 225.595C34.0105 225.782 34.2063 225.876 34.48 225.876C34.7483 225.876 34.9414 225.782 35.0595 225.595C35.1802 225.405 35.2406 225.067 35.2406 224.58Z" fill="black"/>
<path d="M83.8938 367.647C83.7647 367.706 83.6473 367.761 83.5416 367.812C83.4384 367.864 83.3022 367.918 83.1332 367.974C82.99 368.02 82.8339 368.06 82.6649 368.091C82.4982 368.126 82.3139 368.143 82.112 368.143C81.7317 368.143 81.3855 368.088 81.0733 367.978C80.7634 367.865 80.4934 367.69 80.2634 367.453C80.038 367.22 79.862 366.926 79.7352 366.568C79.6084 366.209 79.5451 365.792 79.5451 365.317C79.5451 364.867 79.6061 364.464 79.7282 364.11C79.8502 363.755 80.0263 363.455 80.2563 363.21C80.4794 362.973 80.7481 362.792 81.0627 362.667C81.3796 362.542 81.7306 362.48 82.1155 362.48C82.3972 362.48 82.6778 362.516 82.9571 362.586C83.2388 362.657 83.551 362.782 83.8938 362.961V363.823H83.8409C83.5522 363.571 83.2658 363.388 82.9818 363.273C82.6977 363.158 82.3937 363.1 82.0698 363.1C81.8045 363.1 81.5651 363.146 81.3514 363.236C81.1402 363.324 80.9512 363.462 80.7845 363.651C80.6226 363.834 80.4958 364.067 80.4042 364.348C80.315 364.627 80.2704 364.95 80.2704 365.317C80.2704 365.701 80.3197 366.031 80.4183 366.308C80.5193 366.584 80.6484 366.809 80.8057 366.983C80.97 367.164 81.1613 367.299 81.3796 367.387C81.6003 367.472 81.8327 367.515 82.0768 367.515C82.4125 367.515 82.7271 367.455 83.0205 367.335C83.3139 367.216 83.5886 367.036 83.8445 366.796H83.8938V367.647Z" fill="#2E3A59"/>
<path d="M85.4959 368.044H84.8339V362.333H85.4959V368.044Z" fill="#2E3A59"/>
<path d="M89.8622 368.044H89.2038V367.607C89.1451 367.649 89.0653 367.707 88.9643 367.783C88.8657 367.857 88.7695 367.915 88.6756 367.959C88.5652 368.016 88.4385 368.062 88.2953 368.099C88.1521 368.138 87.9842 368.157 87.7918 368.157C87.4373 368.157 87.1368 368.035 86.8903 367.79C86.6438 367.546 86.5206 367.234 86.5206 366.855C86.5206 366.544 86.584 366.293 86.7107 366.102C86.8399 365.909 87.0229 365.757 87.26 365.647C87.4995 365.537 87.7871 365.463 88.1227 365.423C88.4584 365.384 88.8188 365.355 89.2038 365.335V365.229C89.2038 365.072 89.1768 364.943 89.1228 364.84C89.0711 364.737 88.996 364.656 88.8974 364.598C88.8035 364.541 88.6908 364.503 88.5594 364.484C88.4279 364.464 88.2906 364.454 88.1474 364.454C87.9737 364.454 87.78 364.479 87.5664 364.528C87.3528 364.574 87.1321 364.643 86.9044 364.733H86.8692V364.032C86.9983 363.996 87.1849 363.955 87.4291 363.911C87.6732 363.867 87.9138 363.845 88.1509 363.845C88.4279 363.845 88.6685 363.87 88.8728 363.919C89.0793 363.965 89.2578 364.046 89.408 364.161C89.5559 364.273 89.6686 364.419 89.746 364.598C89.8235 364.776 89.8622 364.998 89.8622 365.262V368.044ZM89.2038 367.034V365.893C89.0019 365.905 88.7636 365.924 88.489 365.948C88.2166 365.973 88.0007 366.008 87.841 366.055C87.6509 366.111 87.4971 366.199 87.3798 366.319C87.2624 366.436 87.2037 366.599 87.2037 366.807C87.2037 367.042 87.2718 367.219 87.4079 367.339C87.5441 367.457 87.7518 367.515 88.0312 367.515C88.2636 367.515 88.476 367.469 88.6685 367.376C88.861 367.28 89.0394 367.167 89.2038 367.034Z" fill="#2E3A59"/>
<path d="M93.9468 366.862C93.9468 367.236 93.7978 367.543 93.4996 367.783C93.2039 368.023 92.7989 368.143 92.2848 368.143C91.9937 368.143 91.7261 368.107 91.482 368.036C91.2402 367.963 91.0371 367.883 90.8728 367.798V367.023H90.908C91.117 367.187 91.3494 367.318 91.6052 367.416C91.8611 367.512 92.1064 367.559 92.3412 367.559C92.6323 367.559 92.86 367.51 93.0243 367.412C93.1886 367.315 93.2708 367.16 93.2708 366.95C93.2708 366.789 93.2262 366.666 93.137 366.583C93.0478 366.5 92.8764 366.429 92.6229 366.37C92.529 366.348 92.4057 366.323 92.2531 366.293C92.1029 366.264 91.9656 366.232 91.8412 366.198C91.4961 366.102 91.2508 365.963 91.1052 365.779C90.962 365.593 90.8904 365.366 90.8904 365.097C90.8904 364.928 90.9233 364.769 90.989 364.62C91.0571 364.47 91.1592 364.337 91.2954 364.22C91.4268 364.105 91.5935 364.014 91.7954 363.948C91.9996 363.88 92.2273 363.845 92.4785 363.845C92.7132 363.845 92.9503 363.876 93.1898 363.937C93.4316 363.996 93.6323 364.068 93.7919 364.154V364.891H93.7567C93.5877 364.762 93.3823 364.653 93.1405 364.565C92.8987 364.474 92.6616 364.429 92.4292 364.429C92.1874 364.429 91.9832 364.478 91.8165 364.576C91.6498 364.671 91.5665 364.814 91.5665 365.005C91.5665 365.174 91.617 365.301 91.7179 365.387C91.8165 365.472 91.9761 365.542 92.1968 365.596C92.3189 365.625 92.455 365.655 92.6053 365.684C92.7578 365.713 92.8846 365.74 92.9855 365.765C93.2931 365.838 93.5302 365.964 93.6968 366.143C93.8635 366.324 93.9468 366.564 93.9468 366.862Z" fill="#2E3A59"/>
<path d="M97.7075 366.862C97.7075 367.236 97.5584 367.543 97.2603 367.783C96.9645 368.023 96.5596 368.143 96.0455 368.143C95.7544 368.143 95.4868 368.107 95.2426 368.036C95.0009 367.963 94.7978 367.883 94.6335 367.798V367.023H94.6687C94.8776 367.187 95.11 367.318 95.3659 367.416C95.6218 367.512 95.8671 367.559 96.1018 367.559C96.3929 367.559 96.6206 367.51 96.7849 367.412C96.9493 367.315 97.0314 367.16 97.0314 366.95C97.0314 366.789 96.9868 366.666 96.8976 366.583C96.8084 366.5 96.637 366.429 96.3835 366.37C96.2896 366.348 96.1664 366.323 96.0138 366.293C95.8636 366.264 95.7262 366.232 95.6018 366.198C95.2567 366.102 95.0114 365.963 94.8659 365.779C94.7227 365.593 94.6511 365.366 94.6511 365.097C94.6511 364.928 94.6839 364.769 94.7497 364.62C94.8178 364.47 94.9199 364.337 95.056 364.22C95.1875 364.105 95.3542 364.014 95.556 363.948C95.7603 363.88 95.988 363.845 96.2392 363.845C96.4739 363.845 96.711 363.876 96.9504 363.937C97.1922 363.996 97.3929 364.068 97.5526 364.154V364.891H97.5174C97.3483 364.762 97.1429 364.653 96.9011 364.565C96.6594 364.474 96.4223 364.429 96.1899 364.429C95.9481 364.429 95.7438 364.478 95.5772 364.576C95.4105 364.671 95.3272 364.814 95.3272 365.005C95.3272 365.174 95.3776 365.301 95.4786 365.387C95.5772 365.472 95.7368 365.542 95.9575 365.596C96.0795 365.625 96.2157 365.655 96.3659 365.684C96.5185 365.713 96.6453 365.74 96.7462 365.765C97.0537 365.838 97.2908 365.964 97.4575 366.143C97.6242 366.324 97.7075 366.564 97.7075 366.862Z" fill="#2E3A59"/>
<path d="M105.38 368.044H104.637L104.123 366.521H101.855L101.341 368.044H100.634L102.542 362.579H103.472L105.38 368.044ZM103.908 365.897L102.989 363.214L102.067 365.897H103.908Z" fill="#2E3A59"/>
<path d="M132.314 367.647C132.184 367.706 132.067 367.761 131.961 367.812C131.858 367.864 131.722 367.918 131.553 367.974C131.41 368.02 131.254 368.06 131.085 368.091C130.918 368.126 130.734 368.143 130.532 368.143C130.151 368.143 129.805 368.088 129.493 367.978C129.183 367.865 128.913 367.69 128.683 367.453C128.458 367.22 128.282 366.926 128.155 366.568C128.028 366.209 127.965 365.792 127.965 365.317C127.965 364.867 128.026 364.464 128.148 364.11C128.27 363.755 128.446 363.455 128.676 363.21C128.899 362.973 129.168 362.792 129.482 362.667C129.799 362.542 130.15 362.48 130.535 362.48C130.817 362.48 131.098 362.516 131.377 362.586C131.659 362.657 131.971 362.782 132.314 362.961V363.823H132.261C131.972 363.571 131.686 363.388 131.402 363.273C131.117 363.158 130.813 363.1 130.49 363.1C130.224 363.1 129.985 363.146 129.771 363.236C129.56 363.324 129.371 363.462 129.204 363.651C129.042 363.834 128.916 364.067 128.824 364.348C128.735 364.627 128.69 364.95 128.69 365.317C128.69 365.701 128.739 366.031 128.838 366.308C128.939 366.584 129.068 366.809 129.225 366.983C129.39 367.164 129.581 367.299 129.799 367.387C130.02 367.472 130.252 367.515 130.497 367.515C130.832 367.515 131.147 367.455 131.44 367.335C131.734 367.216 132.008 367.036 132.264 366.796H132.314V367.647Z" fill="#2E3A59"/>
<path d="M133.916 368.044H133.254V362.333H133.916V368.044Z" fill="#2E3A59"/>
<path d="M138.282 368.044H137.624V367.607C137.565 367.649 137.485 367.707 137.384 367.783C137.285 367.857 137.189 367.915 137.095 367.959C136.985 368.016 136.858 368.062 136.715 368.099C136.572 368.138 136.404 368.157 136.212 368.157C135.857 368.157 135.557 368.035 135.31 367.79C135.064 367.546 134.94 367.234 134.94 366.855C134.94 366.544 135.004 366.293 135.131 366.102C135.26 365.909 135.443 365.757 135.68 365.647C135.919 365.537 136.207 365.463 136.543 365.423C136.878 365.384 137.239 365.355 137.624 365.335V365.229C137.624 365.072 137.597 364.943 137.543 364.84C137.491 364.737 137.416 364.656 137.317 364.598C137.223 364.541 137.111 364.503 136.979 364.484C136.848 364.464 136.71 364.454 136.567 364.454C136.393 364.454 136.2 364.479 135.986 364.528C135.773 364.574 135.552 364.643 135.324 364.733H135.289V364.032C135.418 363.996 135.605 363.955 135.849 363.911C136.093 363.867 136.334 363.845 136.571 363.845C136.848 363.845 137.088 363.87 137.293 363.919C137.499 363.965 137.678 364.046 137.828 364.161C137.976 364.273 138.088 364.419 138.166 364.598C138.243 364.776 138.282 364.998 138.282 365.262V368.044ZM137.624 367.034V365.893C137.422 365.905 137.183 365.924 136.909 365.948C136.636 365.973 136.42 366.008 136.261 366.055C136.071 366.111 135.917 366.199 135.8 366.319C135.682 366.436 135.623 366.599 135.623 366.807C135.623 367.042 135.692 367.219 135.828 367.339C135.964 367.457 136.172 367.515 136.451 367.515C136.683 367.515 136.896 367.469 137.088 367.376C137.281 367.28 137.459 367.167 137.624 367.034Z" fill="#2E3A59"/>
<path d="M142.367 366.862C142.367 367.236 142.218 367.543 141.919 367.783C141.624 368.023 141.219 368.143 140.705 368.143C140.413 368.143 140.146 368.107 139.902 368.036C139.66 367.963 139.457 367.883 139.293 367.798V367.023H139.328C139.537 367.187 139.769 367.318 140.025 367.416C140.281 367.512 140.526 367.559 140.761 367.559C141.052 367.559 141.28 367.51 141.444 367.412C141.608 367.315 141.691 367.16 141.691 366.95C141.691 366.789 141.646 366.666 141.557 366.583C141.468 366.5 141.296 366.429 141.043 366.37C140.949 366.348 140.825 366.323 140.673 366.293C140.523 366.264 140.385 366.232 140.261 366.198C139.916 366.102 139.671 365.963 139.525 365.779C139.382 365.593 139.31 365.366 139.31 365.097C139.31 364.928 139.343 364.769 139.409 364.62C139.477 364.47 139.579 364.337 139.715 364.22C139.847 364.105 140.013 364.014 140.215 363.948C140.419 363.88 140.647 363.845 140.898 363.845C141.133 363.845 141.37 363.876 141.61 363.937C141.851 363.996 142.052 364.068 142.212 364.154V364.891H142.176C142.007 364.762 141.802 364.653 141.56 364.565C141.318 364.474 141.081 364.429 140.849 364.429C140.607 364.429 140.403 364.478 140.236 364.576C140.07 364.671 139.986 364.814 139.986 365.005C139.986 365.174 140.037 365.301 140.138 365.387C140.236 365.472 140.396 365.542 140.617 365.596C140.739 365.625 140.875 365.655 141.025 365.684C141.178 365.713 141.304 365.74 141.405 365.765C141.713 365.838 141.95 365.964 142.117 366.143C142.283 366.324 142.367 366.564 142.367 366.862Z" fill="#2E3A59"/>
<path d="M146.127 366.862C146.127 367.236 145.978 367.543 145.68 367.783C145.384 368.023 144.979 368.143 144.465 368.143C144.174 368.143 143.907 368.107 143.662 368.036C143.421 367.963 143.218 367.883 143.053 367.798V367.023H143.088C143.297 367.187 143.53 367.318 143.786 367.416C144.042 367.512 144.287 367.559 144.522 367.559C144.813 367.559 145.04 367.51 145.205 367.412C145.369 367.315 145.451 367.16 145.451 366.95C145.451 366.789 145.407 366.666 145.317 366.583C145.228 366.5 145.057 366.429 144.803 366.37C144.709 366.348 144.586 366.323 144.434 366.293C144.283 366.264 144.146 366.232 144.022 366.198C143.676 366.102 143.431 365.963 143.286 365.779C143.142 365.593 143.071 365.366 143.071 365.097C143.071 364.928 143.104 364.769 143.169 364.62C143.238 364.47 143.34 364.337 143.476 364.22C143.607 364.105 143.774 364.014 143.976 363.948C144.18 363.88 144.408 363.845 144.659 363.845C144.894 363.845 145.131 363.876 145.37 363.937C145.612 363.996 145.813 364.068 145.972 364.154V364.891H145.937C145.768 364.762 145.563 364.653 145.321 364.565C145.079 364.474 144.842 364.429 144.61 364.429C144.368 364.429 144.164 364.478 143.997 364.576C143.83 364.671 143.747 364.814 143.747 365.005C143.747 365.174 143.797 365.301 143.898 365.387C143.997 365.472 144.157 365.542 144.377 365.596C144.499 365.625 144.635 365.655 144.786 365.684C144.938 365.713 145.065 365.74 145.166 365.765C145.473 365.838 145.711 365.964 145.877 366.143C146.044 366.324 146.127 366.564 146.127 366.862Z" fill="#2E3A59"/>
<path d="M153.62 366.363C153.62 366.634 153.571 366.874 153.473 367.082C153.374 367.29 153.241 367.461 153.075 367.596C152.877 367.757 152.66 367.872 152.423 367.941C152.188 368.009 151.889 368.044 151.525 368.044H149.666V362.579H151.219C151.602 362.579 151.888 362.594 152.078 362.623C152.268 362.653 152.45 362.714 152.624 362.807C152.816 362.912 152.956 363.048 153.043 363.214C153.13 363.378 153.173 363.575 153.173 363.805C153.173 364.064 153.11 364.286 152.983 364.469C152.856 364.65 152.687 364.796 152.476 364.906V364.935C152.83 365.011 153.11 365.174 153.314 365.423C153.518 365.67 153.62 365.984 153.62 366.363ZM152.448 363.9C152.448 363.768 152.427 363.657 152.384 363.566C152.342 363.476 152.274 363.402 152.18 363.346C152.07 363.28 151.936 363.24 151.779 363.225C151.622 363.208 151.427 363.199 151.194 363.199H150.363V364.777H151.265C151.483 364.777 151.657 364.766 151.786 364.744C151.915 364.72 152.035 364.671 152.145 364.598C152.255 364.524 152.333 364.43 152.377 364.315C152.424 364.198 152.448 364.059 152.448 363.9ZM152.895 366.392C152.895 366.172 152.863 365.997 152.8 365.867C152.737 365.738 152.622 365.628 152.455 365.537C152.342 365.476 152.205 365.437 152.043 365.42C151.883 365.4 151.688 365.39 151.458 365.39H150.363V367.423H151.286C151.591 367.423 151.841 367.408 152.036 367.376C152.231 367.342 152.39 367.28 152.515 367.192C152.646 367.097 152.742 366.988 152.803 366.866C152.865 366.743 152.895 366.586 152.895 366.392Z" fill="#2E3A59"/>
<path d="M180.733 367.647C180.604 367.706 180.487 367.761 180.381 367.812C180.278 367.864 180.142 367.918 179.973 367.974C179.829 368.02 179.673 368.06 179.504 368.091C179.338 368.126 179.153 368.143 178.952 368.143C178.571 368.143 178.225 368.088 177.913 367.978C177.603 367.865 177.333 367.69 177.103 367.453C176.878 367.22 176.701 366.926 176.575 366.568C176.448 366.209 176.385 365.792 176.385 365.317C176.385 364.867 176.446 364.464 176.568 364.11C176.69 363.755 176.866 363.455 177.096 363.21C177.319 362.973 177.588 362.792 177.902 362.667C178.219 362.542 178.57 362.48 178.955 362.48C179.237 362.48 179.517 362.516 179.797 362.586C180.078 362.657 180.391 362.782 180.733 362.961V363.823H180.68C180.392 363.571 180.105 363.388 179.821 363.273C179.537 363.158 179.233 363.1 178.909 363.1C178.644 363.1 178.405 363.146 178.191 363.236C177.98 363.324 177.791 363.462 177.624 363.651C177.462 363.834 177.335 364.067 177.244 364.348C177.155 364.627 177.11 364.95 177.11 365.317C177.11 365.701 177.159 366.031 177.258 366.308C177.359 366.584 177.488 366.809 177.645 366.983C177.809 367.164 178.001 367.299 178.219 367.387C178.44 367.472 178.672 367.515 178.916 367.515C179.252 367.515 179.567 367.455 179.86 367.335C180.153 367.216 180.428 367.036 180.684 366.796H180.733V367.647Z" fill="#2E3A59"/>
<path d="M182.335 368.044H181.673V362.333H182.335V368.044Z" fill="#2E3A59"/>
<path d="M186.702 368.044H186.043V367.607C185.985 367.649 185.905 367.707 185.804 367.783C185.705 367.857 185.609 367.915 185.515 367.959C185.405 368.016 185.278 368.062 185.135 368.099C184.992 368.138 184.824 368.157 184.631 368.157C184.277 368.157 183.976 368.035 183.73 367.79C183.483 367.546 183.36 367.234 183.36 366.855C183.36 366.544 183.423 366.293 183.55 366.102C183.679 365.909 183.862 365.757 184.1 365.647C184.339 365.537 184.627 365.463 184.962 365.423C185.298 365.384 185.658 365.355 186.043 365.335V365.229C186.043 365.072 186.016 364.943 185.962 364.84C185.911 364.737 185.836 364.656 185.737 364.598C185.643 364.541 185.53 364.503 185.399 364.484C185.267 364.464 185.13 364.454 184.987 364.454C184.813 364.454 184.62 364.479 184.406 364.528C184.192 364.574 183.972 364.643 183.744 364.733H183.709V364.032C183.838 363.996 184.024 363.955 184.269 363.911C184.513 363.867 184.753 363.845 184.99 363.845C185.267 363.845 185.508 363.87 185.712 363.919C185.919 363.965 186.097 364.046 186.248 364.161C186.395 364.273 186.508 364.419 186.586 364.598C186.663 364.776 186.702 364.998 186.702 365.262V368.044ZM186.043 367.034V365.893C185.841 365.905 185.603 365.924 185.328 365.948C185.056 365.973 184.84 366.008 184.681 366.055C184.49 366.111 184.337 366.199 184.219 366.319C184.102 366.436 184.043 366.599 184.043 366.807C184.043 367.042 184.111 367.219 184.247 367.339C184.384 367.457 184.591 367.515 184.871 367.515C185.103 367.515 185.316 367.469 185.508 367.376C185.701 367.28 185.879 367.167 186.043 367.034Z" fill="#2E3A59"/>
<path d="M190.786 366.862C190.786 367.236 190.637 367.543 190.339 367.783C190.043 368.023 189.638 368.143 189.124 368.143C188.833 368.143 188.566 368.107 188.322 368.036C188.08 367.963 187.877 367.883 187.712 367.798V367.023H187.748C187.956 367.187 188.189 367.318 188.445 367.416C188.701 367.512 188.946 367.559 189.181 367.559C189.472 367.559 189.699 367.51 189.864 367.412C190.028 367.315 190.11 367.16 190.11 366.95C190.11 366.789 190.066 366.666 189.976 366.583C189.887 366.5 189.716 366.429 189.462 366.37C189.368 366.348 189.245 366.323 189.093 366.293C188.942 366.264 188.805 366.232 188.681 366.198C188.336 366.102 188.09 365.963 187.945 365.779C187.802 365.593 187.73 365.366 187.73 365.097C187.73 364.928 187.763 364.769 187.829 364.62C187.897 364.47 187.999 364.337 188.135 364.22C188.266 364.105 188.433 364.014 188.635 363.948C188.839 363.88 189.067 363.845 189.318 363.845C189.553 363.845 189.79 363.876 190.029 363.937C190.271 363.996 190.472 364.068 190.631 364.154V364.891H190.596C190.427 364.762 190.222 364.653 189.98 364.565C189.738 364.474 189.501 364.429 189.269 364.429C189.027 364.429 188.823 364.478 188.656 364.576C188.489 364.671 188.406 364.814 188.406 365.005C188.406 365.174 188.456 365.301 188.557 365.387C188.656 365.472 188.816 365.542 189.036 365.596C189.158 365.625 189.295 365.655 189.445 365.684C189.597 365.713 189.724 365.74 189.825 365.765C190.133 365.838 190.37 365.964 190.536 366.143C190.703 366.324 190.786 366.564 190.786 366.862Z" fill="#2E3A59"/>
<path d="M194.547 366.862C194.547 367.236 194.398 367.543 194.1 367.783C193.804 368.023 193.399 368.143 192.885 368.143C192.594 368.143 192.326 368.107 192.082 368.036C191.84 367.963 191.637 367.883 191.473 367.798V367.023H191.508C191.717 367.187 191.95 367.318 192.205 367.416C192.461 367.512 192.707 367.559 192.941 367.559C193.232 367.559 193.46 367.51 193.624 367.412C193.789 367.315 193.871 367.16 193.871 366.95C193.871 366.789 193.826 366.666 193.737 366.583C193.648 366.5 193.477 366.429 193.223 366.37C193.129 366.348 193.006 366.323 192.853 366.293C192.703 366.264 192.566 366.232 192.441 366.198C192.096 366.102 191.851 365.963 191.705 365.779C191.562 365.593 191.491 365.366 191.491 365.097C191.491 364.928 191.523 364.769 191.589 364.62C191.657 364.47 191.759 364.337 191.896 364.22C192.027 364.105 192.194 364.014 192.396 363.948C192.6 363.88 192.827 363.845 193.079 363.845C193.313 363.845 193.551 363.876 193.79 363.937C194.032 363.996 194.232 364.068 194.392 364.154V364.891H194.357C194.188 364.762 193.982 364.653 193.741 364.565C193.499 364.474 193.262 364.429 193.029 364.429C192.788 364.429 192.583 364.478 192.417 364.576C192.25 364.671 192.167 364.814 192.167 365.005C192.167 365.174 192.217 365.301 192.318 365.387C192.417 365.472 192.576 365.542 192.797 365.596C192.919 365.625 193.055 365.655 193.205 365.684C193.358 365.713 193.485 365.74 193.586 365.765C193.893 365.838 194.13 365.964 194.297 366.143C194.464 366.324 194.547 366.564 194.547 366.862Z" fill="#2E3A59"/>
<path d="M202.135 367.647C202.006 367.706 201.889 367.761 201.783 367.812C201.68 367.864 201.544 367.918 201.375 367.974C201.231 368.02 201.075 368.06 200.906 368.091C200.74 368.126 200.555 368.143 200.354 368.143C199.973 368.143 199.627 368.088 199.315 367.978C199.005 367.865 198.735 367.69 198.505 367.453C198.28 367.22 198.103 366.926 197.977 366.568C197.85 366.209 197.787 365.792 197.787 365.317C197.787 364.867 197.848 364.464 197.97 364.11C198.092 363.755 198.268 363.455 198.498 363.21C198.721 362.973 198.99 362.792 199.304 362.667C199.621 362.542 199.972 362.48 200.357 362.48C200.639 362.48 200.919 362.516 201.199 362.586C201.48 362.657 201.793 362.782 202.135 362.961V363.823H202.082C201.794 363.571 201.507 363.388 201.223 363.273C200.939 363.158 200.635 363.1 200.311 363.1C200.046 363.1 199.807 363.146 199.593 363.236C199.382 363.324 199.193 363.462 199.026 363.651C198.864 363.834 198.737 364.067 198.646 364.348C198.557 364.627 198.512 364.95 198.512 365.317C198.512 365.701 198.561 366.031 198.66 366.308C198.761 366.584 198.89 366.809 199.047 366.983C199.211 367.164 199.403 367.299 199.621 367.387C199.842 367.472 200.074 367.515 200.318 367.515C200.654 367.515 200.969 367.455 201.262 367.335C201.555 367.216 201.83 367.036 202.086 366.796H202.135V367.647Z" fill="#2E3A59"/>
<path d="M229.153 367.647C229.024 367.706 228.907 367.761 228.801 367.812C228.698 367.864 228.561 367.918 228.392 367.974C228.249 368.02 228.093 368.06 227.924 368.091C227.757 368.126 227.573 368.143 227.371 368.143C226.991 368.143 226.645 368.088 226.333 367.978C226.023 367.865 225.753 367.69 225.523 367.453C225.297 367.22 225.121 366.926 224.994 366.568C224.868 366.209 224.804 365.792 224.804 365.317C224.804 364.867 224.865 364.464 224.987 364.11C225.11 363.755 225.286 363.455 225.516 363.21C225.739 362.973 226.007 362.792 226.322 362.667C226.639 362.542 226.99 362.48 227.375 362.48C227.657 362.48 227.937 362.516 228.216 362.586C228.498 362.657 228.81 362.782 229.153 362.961V363.823H229.1C228.811 363.571 228.525 363.388 228.241 363.273C227.957 363.158 227.653 363.1 227.329 363.1C227.064 363.1 226.824 363.146 226.611 363.236C226.399 363.324 226.21 363.462 226.044 363.651C225.882 363.834 225.755 364.067 225.664 364.348C225.574 364.627 225.53 364.95 225.53 365.317C225.53 365.701 225.579 366.031 225.678 366.308C225.779 366.584 225.908 366.809 226.065 366.983C226.229 367.164 226.421 367.299 226.639 367.387C226.86 367.472 227.092 367.515 227.336 367.515C227.672 367.515 227.986 367.455 228.28 367.335C228.573 367.216 228.848 367.036 229.104 366.796H229.153V367.647Z" fill="#2E3A59"/>
<path d="M230.755 368.044H230.093V362.333H230.755V368.044Z" fill="#2E3A59"/>
<path d="M235.122 368.044H234.463V367.607C234.404 367.649 234.325 367.707 234.224 367.783C234.125 367.857 234.029 367.915 233.935 367.959C233.825 368.016 233.698 368.062 233.555 368.099C233.411 368.138 233.244 368.157 233.051 368.157C232.697 368.157 232.396 368.035 232.15 367.79C231.903 367.546 231.78 367.234 231.78 366.855C231.78 366.544 231.843 366.293 231.97 366.102C232.099 365.909 232.282 365.757 232.519 365.647C232.759 365.537 233.046 365.463 233.382 365.423C233.718 365.384 234.078 365.355 234.463 365.335V365.229C234.463 365.072 234.436 364.943 234.382 364.84C234.33 364.737 234.255 364.656 234.157 364.598C234.063 364.541 233.95 364.503 233.819 364.484C233.687 364.464 233.55 364.454 233.407 364.454C233.233 364.454 233.039 364.479 232.826 364.528C232.612 364.574 232.391 364.643 232.164 364.733H232.128V364.032C232.258 363.996 232.444 363.955 232.688 363.911C232.932 363.867 233.173 363.845 233.41 363.845C233.687 363.845 233.928 363.87 234.132 363.919C234.339 363.965 234.517 364.046 234.667 364.161C234.815 364.273 234.928 364.419 235.005 364.598C235.083 364.776 235.122 364.998 235.122 365.262V368.044ZM234.463 367.034V365.893C234.261 365.905 234.023 365.924 233.748 365.948C233.476 365.973 233.26 366.008 233.1 366.055C232.91 366.111 232.756 366.199 232.639 366.319C232.522 366.436 232.463 366.599 232.463 366.807C232.463 367.042 232.531 367.219 232.667 367.339C232.803 367.457 233.011 367.515 233.29 367.515C233.523 367.515 233.735 367.469 233.928 367.376C234.12 367.28 234.299 367.167 234.463 367.034Z" fill="#2E3A59"/>
<path d="M239.206 366.862C239.206 367.236 239.057 367.543 238.759 367.783C238.463 368.023 238.058 368.143 237.544 368.143C237.253 368.143 236.985 368.107 236.741 368.036C236.499 367.963 236.296 367.883 236.132 367.798V367.023H236.167C236.376 367.187 236.609 367.318 236.865 367.416C237.12 367.512 237.366 367.559 237.6 367.559C237.892 367.559 238.119 367.51 238.284 367.412C238.448 367.315 238.53 367.16 238.53 366.95C238.53 366.789 238.485 366.666 238.396 366.583C238.307 366.5 238.136 366.429 237.882 366.37C237.788 366.348 237.665 366.323 237.512 366.293C237.362 366.264 237.225 366.232 237.1 366.198C236.755 366.102 236.51 365.963 236.364 365.779C236.221 365.593 236.15 365.366 236.15 365.097C236.15 364.928 236.183 364.769 236.248 364.62C236.316 364.47 236.418 364.337 236.555 364.22C236.686 364.105 236.853 364.014 237.055 363.948C237.259 363.88 237.487 363.845 237.738 363.845C237.973 363.845 238.21 363.876 238.449 363.937C238.691 363.996 238.892 364.068 239.051 364.154V364.891H239.016C238.847 364.762 238.642 364.653 238.4 364.565C238.158 364.474 237.921 364.429 237.688 364.429C237.447 364.429 237.242 364.478 237.076 364.576C236.909 364.671 236.826 364.814 236.826 365.005C236.826 365.174 236.876 365.301 236.977 365.387C237.076 365.472 237.235 365.542 237.456 365.596C237.578 365.625 237.714 365.655 237.865 365.684C238.017 365.713 238.144 365.74 238.245 365.765C238.552 365.838 238.789 365.964 238.956 366.143C239.123 366.324 239.206 366.564 239.206 366.862Z" fill="#2E3A59"/>
<path d="M242.967 366.862C242.967 367.236 242.818 367.543 242.52 367.783C242.224 368.023 241.819 368.143 241.305 368.143C241.014 368.143 240.746 368.107 240.502 368.036C240.26 367.963 240.057 367.883 239.893 367.798V367.023H239.928C240.137 367.187 240.369 367.318 240.625 367.416C240.881 367.512 241.126 367.559 241.361 367.559C241.652 367.559 241.88 367.51 242.044 367.412C242.209 367.315 242.291 367.16 242.291 366.95C242.291 366.789 242.246 366.666 242.157 366.583C242.068 366.5 241.896 366.429 241.643 366.37C241.549 366.348 241.426 366.323 241.273 366.293C241.123 366.264 240.986 366.232 240.861 366.198C240.516 366.102 240.271 365.963 240.125 365.779C239.982 365.593 239.91 365.366 239.91 365.097C239.91 364.928 239.943 364.769 240.009 364.62C240.077 364.47 240.179 364.337 240.315 364.22C240.447 364.105 240.613 364.014 240.815 363.948C241.02 363.88 241.247 363.845 241.498 363.845C241.733 363.845 241.97 363.876 242.21 363.937C242.452 363.996 242.652 364.068 242.812 364.154V364.891H242.777C242.608 364.762 242.402 364.653 242.16 364.565C241.919 364.474 241.682 364.429 241.449 364.429C241.207 364.429 241.003 364.478 240.836 364.576C240.67 364.671 240.586 364.814 240.586 365.005C240.586 365.174 240.637 365.301 240.738 365.387C240.836 365.472 240.996 365.542 241.217 365.596C241.339 365.625 241.475 365.655 241.625 365.684C241.778 365.713 241.905 365.74 242.005 365.765C242.313 365.838 242.55 365.964 242.717 366.143C242.883 366.324 242.967 366.564 242.967 366.862Z" fill="#2E3A59"/>
<path d="M250.935 365.317C250.935 365.814 250.831 366.264 250.622 366.667C250.415 367.071 250.139 367.384 249.794 367.607C249.555 367.761 249.287 367.872 248.992 367.941C248.698 368.009 248.311 368.044 247.83 368.044H246.506V362.579H247.815C248.327 362.579 248.733 362.618 249.034 362.697C249.337 362.772 249.593 362.878 249.801 363.012C250.158 363.245 250.436 363.554 250.636 363.941C250.836 364.327 250.935 364.786 250.935 365.317ZM250.206 365.306C250.206 364.878 250.135 364.517 249.992 364.223C249.848 363.93 249.635 363.698 249.351 363.53C249.144 363.407 248.925 363.323 248.692 363.276C248.46 363.228 248.182 363.203 247.858 363.203H247.203V367.42H247.858C248.193 367.42 248.486 367.394 248.735 367.343C248.986 367.291 249.216 367.196 249.425 367.056C249.685 366.883 249.88 366.654 250.009 366.37C250.141 366.086 250.206 365.732 250.206 365.306Z" fill="#2E3A59"/>
<path d="M278.603 367.647C278.474 367.706 278.357 367.761 278.251 367.812C278.148 367.864 278.011 367.918 277.842 367.974C277.699 368.02 277.543 368.06 277.374 368.091C277.207 368.126 277.023 368.143 276.821 368.143C276.441 368.143 276.095 368.088 275.783 367.978C275.473 367.865 275.203 367.69 274.973 367.453C274.747 367.22 274.571 366.926 274.444 366.568C274.318 366.209 274.254 365.792 274.254 365.317C274.254 364.867 274.315 364.464 274.437 364.11C274.559 363.755 274.736 363.455 274.966 363.21C275.189 362.973 275.457 362.792 275.772 362.667C276.089 362.542 276.44 362.48 276.825 362.48C277.106 362.48 277.387 362.516 277.666 362.586C277.948 362.657 278.26 362.782 278.603 362.961V363.823H278.55C278.261 363.571 277.975 363.388 277.691 363.273C277.407 363.158 277.103 363.1 276.779 363.1C276.514 363.1 276.274 363.146 276.061 363.236C275.849 363.324 275.66 363.462 275.494 363.651C275.332 363.834 275.205 364.067 275.113 364.348C275.024 364.627 274.98 364.95 274.98 365.317C274.98 365.701 275.029 366.031 275.128 366.308C275.229 366.584 275.358 366.809 275.515 366.983C275.679 367.164 275.871 367.299 276.089 367.387C276.31 367.472 276.542 367.515 276.786 367.515C277.122 367.515 277.436 367.455 277.73 367.335C278.023 367.216 278.298 367.036 278.554 366.796H278.603V367.647Z" fill="#2E3A59"/>
<path d="M280.205 368.044H279.543V362.333H280.205V368.044Z" fill="#2E3A59"/>
<path d="M284.571 368.044H283.913V367.607C283.854 367.649 283.775 367.707 283.674 367.783C283.575 367.857 283.479 367.915 283.385 367.959C283.275 368.016 283.148 368.062 283.005 368.099C282.861 368.138 282.694 368.157 282.501 368.157C282.147 368.157 281.846 368.035 281.6 367.79C281.353 367.546 281.23 367.234 281.23 366.855C281.23 366.544 281.293 366.293 281.42 366.102C281.549 365.909 281.732 365.757 281.969 365.647C282.209 365.537 282.496 365.463 282.832 365.423C283.168 365.384 283.528 365.355 283.913 365.335V365.229C283.913 365.072 283.886 364.943 283.832 364.84C283.78 364.737 283.705 364.656 283.607 364.598C283.513 364.541 283.4 364.503 283.269 364.484C283.137 364.464 283 364.454 282.857 364.454C282.683 364.454 282.489 364.479 282.276 364.528C282.062 364.574 281.841 364.643 281.614 364.733H281.578V364.032C281.708 363.996 281.894 363.955 282.138 363.911C282.382 363.867 282.623 363.845 282.86 363.845C283.137 363.845 283.378 363.87 283.582 363.919C283.789 363.965 283.967 364.046 284.117 364.161C284.265 364.273 284.378 364.419 284.455 364.598C284.533 364.776 284.571 364.998 284.571 365.262V368.044ZM283.913 367.034V365.893C283.711 365.905 283.473 365.924 283.198 365.948C282.926 365.973 282.71 366.008 282.55 366.055C282.36 366.111 282.206 366.199 282.089 366.319C281.972 366.436 281.913 366.599 281.913 366.807C281.913 367.042 281.981 367.219 282.117 367.339C282.253 367.457 282.461 367.515 282.74 367.515C282.973 367.515 283.185 367.469 283.378 367.376C283.57 367.28 283.749 367.167 283.913 367.034Z" fill="#2E3A59"/>
<path d="M288.656 366.862C288.656 367.236 288.507 367.543 288.209 367.783C287.913 368.023 287.508 368.143 286.994 368.143C286.703 368.143 286.435 368.107 286.191 368.036C285.949 367.963 285.746 367.883 285.582 367.798V367.023H285.617C285.826 367.187 286.059 367.318 286.314 367.416C286.57 367.512 286.816 367.559 287.05 367.559C287.342 367.559 287.569 367.51 287.734 367.412C287.898 367.315 287.98 367.16 287.98 366.95C287.98 366.789 287.935 366.666 287.846 366.583C287.757 366.5 287.586 366.429 287.332 366.37C287.238 366.348 287.115 366.323 286.962 366.293C286.812 366.264 286.675 366.232 286.55 366.198C286.205 366.102 285.96 365.963 285.814 365.779C285.671 365.593 285.6 365.366 285.6 365.097C285.6 364.928 285.633 364.769 285.698 364.62C285.766 364.47 285.868 364.337 286.005 364.22C286.136 364.105 286.303 364.014 286.505 363.948C286.709 363.88 286.937 363.845 287.188 363.845C287.422 363.845 287.66 363.876 287.899 363.937C288.141 363.996 288.342 364.068 288.501 364.154V364.891H288.466C288.297 364.762 288.092 364.653 287.85 364.565C287.608 364.474 287.371 364.429 287.138 364.429C286.897 364.429 286.692 364.478 286.526 364.576C286.359 364.671 286.276 364.814 286.276 365.005C286.276 365.174 286.326 365.301 286.427 365.387C286.526 365.472 286.685 365.542 286.906 365.596C287.028 365.625 287.164 365.655 287.315 365.684C287.467 365.713 287.594 365.74 287.695 365.765C288.002 365.838 288.239 365.964 288.406 366.143C288.573 366.324 288.656 366.564 288.656 366.862Z" fill="#2E3A59"/>
<path d="M292.417 366.862C292.417 367.236 292.268 367.543 291.97 367.783C291.674 368.023 291.269 368.143 290.755 368.143C290.464 368.143 290.196 368.107 289.952 368.036C289.71 367.963 289.507 367.883 289.343 367.798V367.023H289.378C289.587 367.187 289.819 367.318 290.075 367.416C290.331 367.512 290.576 367.559 290.811 367.559C291.102 367.559 291.33 367.51 291.494 367.412C291.659 367.315 291.741 367.16 291.741 366.95C291.741 366.789 291.696 366.666 291.607 366.583C291.518 366.5 291.346 366.429 291.093 366.37C290.999 366.348 290.876 366.323 290.723 366.293C290.573 366.264 290.435 366.232 290.311 366.198C289.966 366.102 289.721 365.963 289.575 365.779C289.432 365.593 289.36 365.366 289.36 365.097C289.36 364.928 289.393 364.769 289.459 364.62C289.527 364.47 289.629 364.337 289.765 364.22C289.897 364.105 290.063 364.014 290.265 363.948C290.47 363.88 290.697 363.845 290.948 363.845C291.183 363.845 291.42 363.876 291.66 363.937C291.901 363.996 292.102 364.068 292.262 364.154V364.891H292.227C292.058 364.762 291.852 364.653 291.61 364.565C291.369 364.474 291.132 364.429 290.899 364.429C290.657 364.429 290.453 364.478 290.286 364.576C290.12 364.671 290.036 364.814 290.036 365.005C290.036 365.174 290.087 365.301 290.188 365.387C290.286 365.472 290.446 365.542 290.667 365.596C290.789 365.625 290.925 365.655 291.075 365.684C291.228 365.713 291.355 365.74 291.455 365.765C291.763 365.838 292 365.964 292.167 366.143C292.333 366.324 292.417 366.564 292.417 366.862Z" fill="#2E3A59"/>
<path d="M299.41 368.044H295.956V362.579H299.41V363.225H296.653V364.722H299.41V365.368H296.653V367.398H299.41V368.044Z" fill="#2E3A59"/>
</svg>
